<?xml version="1.0" encoding="UTF-8" standalone="no"?>
<!-- Created with Inkscape (http://www.inkscape.org/) -->

<svg
   version="1.1"
   id="svg2"
   width="43.43866"
   height="42.366486"
   viewBox="0 0 43.43866 42.366486"
   sodipodi:docname="GitHub-Mark.eps"
   xmlns:inkscape="http://www.inkscape.org/namespaces/inkscape"
   xmlns:sodipodi="http://sodipodi.sourceforge.net/DTD/sodipodi-0.dtd"
   xmlns="http://www.w3.org/2000/svg"
   xmlns:svg="http://www.w3.org/2000/svg">
  <defs
     id="defs6" />
  <sodipodi:namedview
     id="namedview4"
     pagecolor="#ffffff"
     bordercolor="#666666"
     borderopacity="1.0"
     inkscape:showpageshadow="2"
     inkscape:pageopacity="0.0"
     inkscape:pagecheckerboard="0"
     inkscape:deskcolor="#d1d1d1"
     showgrid="false" />
  <g
     id="g10"
     inkscape:groupmode="layer"
     inkscape:label="Page 1"
     transform="matrix(1.3333333,0,0,-1.3333333,-181.76,592.72665)">
    <g
       id="g12"
       transform="scale(0.1)">
      <path
         d="M 5309.73,0 H 0 V 2759.86 H 5309.73 V 0"
         style="fill:#231f20;fill-opacity:1;fill-rule:nonzero;stroke:none"
         id="path14" />
      <path
         d="M 1526.08,4445.45 C 1436.14,4445.45 1363.2,4372.52 1363.2,4282.55 1363.2,4210.59 1409.87,4149.53 1474.6,4127.98 1482.75,4126.49 1485.72,4131.52 1485.72,4135.84 1485.72,4139.71 1485.58,4149.95 1485.5,4163.54 1440.19,4153.7 1430.63,4185.38 1430.63,4185.38 1423.22,4204.2 1412.54,4209.21 1412.54,4209.21 1397.75,4219.31 1413.66,4219.11 1413.66,4219.11 1430.01,4217.96 1438.61,4202.32 1438.61,4202.32 1453.14,4177.43 1476.74,4184.62 1486.02,4188.79 1487.5,4199.31 1491.71,4206.49 1496.36,4210.56 1460.19,4214.68 1422.16,4228.65 1422.16,4291.07 1422.16,4308.86 1428.51,4323.39 1438.93,4334.78 1437.25,4338.9 1431.66,4355.46 1440.53,4377.89 1440.53,4377.89 1454.2,4382.27 1485.32,4361.2 1498.31,4364.81 1512.25,4366.61 1526.1,4366.68 1539.94,4366.61 1553.87,4364.81 1566.88,4361.2 1597.98,4382.27 1611.63,4377.89 1611.63,4377.89 1620.52,4355.46 1614.93,4338.9 1613.26,4334.78 1623.7,4323.39 1630,4308.86 1630,4291.07 1630,4228.49 1591.91,4214.72 1555.63,4210.69 1561.47,4205.66 1566.68,4195.72 1566.68,4180.52 1566.68,4158.75 1566.48,4141.18 1566.48,4135.84 1566.48,4131.48 1569.42,4126.41 1577.68,4128 1642.36,4149.59 1688.99,4210.6 1688.99,4282.55 1688.99,4372.52 1616.05,4445.45 1526.08,4445.45"
         style="fill:#1b1817;fill-opacity:1;fill-rule:evenodd;stroke:none"
         id="path16" />
      <path
         d="M 3506.09,4935.55 C 3172.62,4935.55 2902.21,4665.19 2902.21,4331.67 2902.21,4064.86 3075.24,3838.5 3315.18,3758.65 3345.36,3753.06 3356.44,3771.75 3356.44,3787.7 3356.44,3802.1 3355.88,3849.67 3355.62,3900.13 3187.62,3863.6 3152.17,3971.38 3152.17,3971.38 3124.7,4041.18 3085.12,4059.74 3085.12,4059.74 3030.33,4097.22 3089.25,4096.45 3089.25,4096.45 3149.89,4092.2 3181.82,4034.21 3181.82,4034.21 3235.68,3941.9 3323.09,3968.59 3357.55,3984.02 3362.97,4023.05 3378.62,4049.7 3395.89,4064.77 3261.76,4080.04 3120.76,4131.82 3120.76,4363.21 3120.76,4429.14 3144.35,4483.01 3182.98,4525.3 3176.71,4540.52 3156.04,4601.93 3188.83,4685.11 3188.83,4685.11 3239.54,4701.34 3354.94,4623.21 3403.11,4636.59 3454.77,4643.3 3506.09,4643.53 3557.41,4643.3 3609.11,4636.59 3657.37,4623.21 3772.63,4701.34 3823.27,4685.11 3823.27,4685.11 3856.14,4601.93 3835.46,4540.52 3829.19,4525.3 3867.91,4483.01 3891.34,4429.14 3891.34,4363.21 3891.34,4131.27 3750.07,4080.2 3615.6,4065.25 3637.26,4046.51 3656.56,4009.76 3656.56,3953.42 3656.56,3872.62 3655.86,3807.59 3655.86,3787.7 3655.86,3771.63 3666.73,3752.8 3697.34,3758.73 3937.15,3838.67 4109.96,4064.95 4109.96,4331.67 4109.96,4665.19 3839.59,4935.55 3506.09,4935.55"
         style="fill:#1b1817;fill-opacity:1;fill-rule:evenodd;stroke:none"
         id="path18" />
      <path
         d="M 3130.93,4068.51 C 3129.6,4065.5 3124.88,4064.61 3120.58,4066.67 3116.2,4068.64 3113.74,4072.73 3115.16,4075.74 3116.46,4078.82 3121.19,4079.68 3125.56,4077.63 3129.95,4075.65 3132.45,4071.52 3130.93,4068.51 V 4068.51"
         style="fill:#1b1817;fill-opacity:1;fill-rule:nonzero;stroke:none"
         id="path20" />
      <path
         d="M 3155.39,4041.23 C 3152.51,4038.56 3146.88,4039.8 3143.06,4044.02 3139.11,4048.23 3138.37,4053.86 3141.29,4056.57 3144.26,4059.23 3149.72,4057.98 3153.68,4053.78 3157.63,4049.52 3158.4,4043.93 3155.39,4041.23 V 4041.23"
         style="fill:#1b1817;fill-opacity:1;fill-rule:nonzero;stroke:none"
         id="path22" />
      <path
         d="M 3179.2,4006.45 C 3175.5,4003.88 3169.45,4006.29 3165.71,4011.66 3162.01,4017.03 3162.01,4023.47 3165.79,4026.05 3169.54,4028.63 3175.5,4026.3 3179.29,4020.98 3182.98,4015.52 3182.98,4009.08 3179.2,4006.45 V 4006.45"
         style="fill:#1b1817;fill-opacity:1;fill-rule:nonzero;stroke:none"
         id="path24" />
      <path
         d="M 3211.82,3972.85 C 3208.51,3969.2 3201.46,3970.18 3196.3,3975.16 3191.02,3980.03 3189.55,3986.94 3192.87,3990.59 3196.22,3994.25 3203.31,3993.22 3208.51,3988.28 3213.75,3983.42 3215.35,3976.46 3211.82,3972.85 V 3972.85"
         style="fill:#1b1817;fill-opacity:1;fill-rule:nonzero;stroke:none"
         id="path26" />
      <path
         d="M 3256.82,3953.34 C 3255.36,3948.61 3248.57,3946.46 3241.73,3948.47 3234.9,3950.54 3230.43,3956.08 3231.81,3960.86 3233.23,3965.62 3240.05,3967.86 3246.94,3965.71 3253.76,3963.65 3258.24,3958.15 3256.82,3953.34 V 3953.34"
         style="fill:#1b1817;fill-opacity:1;fill-rule:nonzero;stroke:none"
         id="path28" />
      <path
         d="M 3306.24,3949.72 C 3306.41,3944.74 3300.61,3940.61 3293.43,3940.52 3286.21,3940.36 3280.37,3944.39 3280.29,3949.29 3280.29,3954.32 3285.96,3958.41 3293.18,3958.53 3300.36,3958.67 3306.24,3954.67 3306.24,3949.72 V 3949.72"
         style="fill:#1b1817;fill-opacity:1;fill-rule:nonzero;stroke:none"
         id="path30" />
      <path
         d="M 3352.23,3957.55 C 3353.09,3952.69 3348.1,3947.7 3340.97,3946.37 3333.96,3945.09 3327.47,3948.09 3326.58,3952.91 3325.71,3957.89 3330.79,3962.88 3337.79,3964.17 3344.93,3965.41 3351.32,3962.49 3352.23,3957.55 V 3957.55"
         style="fill:#1b1817;fill-opacity:1;fill-rule:nonzero;stroke:none"
         id="path32" />
      <path
         d="M 2248.98,4994.88 V 4989.88"
         style="fill:none;stroke:#3a7fc3;stroke-width:10;stroke-linecap:round;stroke-linejoin:miter;stroke-miterlimit:10;stroke-dasharray:none;stroke-opacity:1"
         id="path34" />
      <path
         d="M 2248.98,4969.88 V 3629.95"
         style="fill:none;stroke:#3a7fc3;stroke-width:10;stroke-linecap:round;stroke-linejoin:miter;stroke-miterlimit:10;stroke-dasharray:9.9995, 19.999;stroke-dashoffset:0;stroke-opacity:1"
         id="path36" />
      <path
         d="M 2248.98,3619.95 V 3614.95"
         style="fill:none;stroke:#3a7fc3;stroke-width:10;stroke-linecap:round;stroke-linejoin:miter;stroke-miterlimit:10;stroke-dasharray:none;stroke-opacity:1"
         id="path38" />
      <path
         d="M 1332.76,3474.79 C 1328.95,3477.56 1324.1,3478.93 1318.18,3478.93 1315.78,3478.93 1313.42,3478.69 1311.1,3478.22 1308.77,3477.73 1306.72,3476.93 1304.92,3475.82 1303.12,3474.68 1301.68,3473.19 1300.59,3471.31 1299.52,3469.43 1298.98,3467.09 1298.98,3464.29 1298.98,3461.66 1299.75,3459.51 1301.32,3457.87 1302.87,3456.23 1304.96,3454.89 1307.56,3453.86 1310.16,3452.81 1313.09,3451.95 1316.38,3451.27 1319.66,3450.59 1323,3449.85 1326.4,3449.06 1329.8,3448.26 1333.13,3447.31 1336.42,3446.23 1339.7,3445.15 1342.64,3443.69 1345.24,3441.85 1347.84,3440.02 1349.92,3437.69 1351.48,3434.9 1353.04,3432.09 1353.82,3428.57 1353.82,3424.33 1353.82,3419.77 1352.8,3415.88 1350.76,3412.63 1348.71,3409.39 1346.1,3406.75 1342.9,3404.71 1339.7,3402.67 1336.12,3401.19 1332.16,3400.27 1328.2,3399.35 1324.26,3398.89 1320.34,3398.89 1315.54,3398.89 1311,3399.49 1306.72,3400.69 1302.44,3401.89 1298.68,3403.71 1295.44,3406.15 1292.2,3408.59 1289.64,3411.72 1287.76,3415.52 1285.88,3419.31 1284.94,3423.81 1284.94,3429.01 H 1295.74 C 1295.74,3425.41 1296.43,3422.31 1297.84,3419.71 1299.24,3417.11 1301.08,3414.98 1303.36,3413.3 1305.64,3411.62 1308.29,3410.37 1311.34,3409.57 1314.38,3408.77 1317.49,3408.38 1320.7,3408.38 1323.26,3408.38 1325.84,3408.61 1328.44,3409.1 1331.04,3409.57 1333.38,3410.39 1335.46,3411.56 1337.54,3412.71 1339.22,3414.29 1340.5,3416.29 1341.78,3418.3 1342.42,3420.86 1342.42,3423.97 1342.42,3426.93 1341.63,3429.33 1340.08,3431.17 1338.52,3433 1336.43,3434.51 1333.84,3435.67 1331.23,3436.83 1328.29,3437.77 1325.02,3438.49 1321.74,3439.22 1318.4,3439.96 1315,3440.72 1311.6,3441.47 1308.26,3442.35 1304.98,3443.36 1301.7,3444.35 1298.75,3445.67 1296.16,3447.31 1293.56,3448.95 1291.48,3451.07 1289.92,3453.67 1288.36,3456.27 1287.58,3459.53 1287.58,3463.45 1287.58,3467.77 1288.46,3471.51 1290.22,3474.68 1291.98,3477.83 1294.32,3480.43 1297.24,3482.48 1300.16,3484.51 1303.48,3486.03 1307.2,3487.03 1310.92,3488.04 1314.74,3488.53 1318.66,3488.53 1323.06,3488.53 1327.14,3488 1330.9,3486.97 1334.66,3485.93 1337.96,3484.29 1340.79,3482.05 1343.64,3479.81 1345.88,3476.99 1347.52,3473.59 1349.15,3470.19 1350.06,3466.13 1350.22,3461.41 H 1339.42 C 1338.77,3467.58 1336.56,3472.03 1332.76,3474.79"
         style="fill:#176fc1;fill-opacity:1;fill-rule:nonzero;stroke:none"
         id="path40" />
      <path
         d="M 1375.54,3462.85 V 3453.73 H 1375.78 C 1380.41,3460.78 1387.09,3464.29 1395.81,3464.29 1399.66,3464.29 1403.13,3463.49 1406.25,3461.89 1409.38,3460.29 1411.58,3457.58 1412.86,3453.73 1414.94,3457.09 1417.68,3459.68 1421.08,3461.53 1424.48,3463.38 1428.22,3464.29 1432.29,3464.29 1435.41,3464.29 1438.24,3463.95 1440.76,3463.28 1443.28,3462.59 1445.43,3461.53 1447.24,3460.09 1449.04,3458.65 1450.43,3456.79 1451.43,3454.51 1452.44,3452.23 1452.93,3449.49 1452.93,3446.29 V 3400.82 H 1442.74 V 3441.49 C 1442.74,3443.42 1442.57,3445.21 1442.25,3446.89 1441.94,3448.57 1441.34,3450.04 1440.46,3451.27 1439.57,3452.52 1438.35,3453.49 1436.8,3454.22 1435.24,3454.94 1433.22,3455.29 1430.74,3455.29 1425.7,3455.29 1421.74,3453.86 1418.86,3450.97 1415.98,3448.09 1414.54,3444.25 1414.54,3439.45 V 3400.82 H 1404.33 V 3441.49 C 1404.33,3443.49 1404.15,3445.33 1403.8,3447.01 1403.44,3448.69 1402.82,3450.15 1401.94,3451.39 1401.05,3452.63 1399.88,3453.59 1398.4,3454.27 1396.91,3454.96 1395.01,3455.29 1392.7,3455.29 1389.74,3455.29 1387.2,3454.7 1385.08,3453.49 1382.95,3452.29 1381.23,3450.86 1379.92,3449.18 1378.6,3447.5 1377.64,3445.76 1377.04,3443.95 1376.43,3442.15 1376.14,3440.65 1376.14,3439.45 V 3400.82 H 1365.94 V 3462.85 H 1375.54"
         style="fill:#176fc1;fill-opacity:1;fill-rule:nonzero;stroke:none"
         id="path42" />
      <path
         d="M 1501.65,3430.76 C 1499.57,3430.31 1497.4,3429.96 1495.12,3429.68 1492.84,3429.39 1490.53,3429.08 1488.21,3428.71 1485.89,3428.36 1483.81,3427.77 1481.98,3426.97 1480.13,3426.17 1478.63,3425.04 1477.47,3423.55 1476.31,3422.07 1475.74,3420.06 1475.74,3417.5 1475.74,3415.82 1476.07,3414.39 1476.75,3413.24 1477.43,3412.07 1478.31,3411.13 1479.39,3410.41 1480.47,3409.7 1481.75,3409.18 1483.24,3408.86 1484.72,3408.53 1486.21,3408.38 1487.73,3408.38 1491.09,3408.38 1493.97,3408.83 1496.38,3409.75 1498.77,3410.67 1500.73,3411.83 1502.25,3413.24 1503.77,3414.63 1504.9,3416.15 1505.61,3417.79 1506.33,3419.43 1506.69,3420.97 1506.69,3422.42 V 3432.85 C 1505.41,3431.89 1503.73,3431.19 1501.65,3430.76 Z M 1515.94,3399.49 C 1513.29,3399.49 1511.2,3400.23 1509.63,3401.72 1508.08,3403.19 1507.29,3405.61 1507.29,3408.97 1504.49,3405.61 1501.23,3403.19 1497.51,3401.72 1493.79,3400.23 1489.77,3399.49 1485.45,3399.49 1482.66,3399.49 1480.01,3399.79 1477.53,3400.39 1475.05,3400.99 1472.87,3401.99 1471,3403.4 1469.12,3404.79 1467.64,3406.59 1466.56,3408.79 1465.47,3410.99 1464.94,3413.65 1464.94,3416.77 1464.94,3420.29 1465.54,3423.17 1466.73,3425.41 1467.93,3427.65 1469.51,3429.47 1471.47,3430.88 1473.43,3432.27 1475.67,3433.34 1478.19,3434.06 1480.71,3434.77 1483.29,3435.37 1485.94,3435.86 1488.73,3436.41 1491.4,3436.83 1493.92,3437.11 1496.43,3437.39 1498.66,3437.79 1500.58,3438.32 1502.49,3438.83 1504.01,3439.59 1505.14,3440.59 1506.25,3441.6 1506.82,3443.05 1506.82,3444.98 1506.82,3447.2 1506.4,3449.01 1505.56,3450.37 1504.72,3451.74 1503.63,3452.77 1502.31,3453.49 1501,3454.22 1499.51,3454.7 1497.87,3454.94 1496.23,3455.17 1494.61,3455.29 1493.02,3455.29 1488.7,3455.29 1485.1,3454.47 1482.22,3452.83 1479.33,3451.19 1477.77,3448.09 1477.53,3443.53 H 1467.33 C 1467.49,3447.37 1468.29,3450.61 1469.74,3453.26 1471.18,3455.9 1473.09,3458.04 1475.49,3459.68 1477.89,3461.31 1480.65,3462.5 1483.77,3463.22 1486.89,3463.93 1490.17,3464.29 1493.61,3464.29 1496.42,3464.29 1499.19,3464.1 1501.95,3463.69 1504.72,3463.3 1507.22,3462.48 1509.45,3461.23 1511.69,3460 1513.5,3458.25 1514.85,3456.01 1516.21,3453.77 1516.89,3450.86 1516.89,3447.25 V 3415.33 C 1516.89,3412.93 1517.04,3411.17 1517.31,3410.06 1517.59,3408.93 1518.54,3408.38 1520.14,3408.38 1521.02,3408.38 1522.05,3408.57 1523.26,3408.97 V 3401.05 C 1521.49,3400.02 1519.06,3399.49 1515.94,3399.49"
         style="fill:#176fc1;fill-opacity:1;fill-rule:nonzero;stroke:none"
         id="path44" />
      <path
         d="M 1543.54,3486.49 V 3400.82 H 1533.33 V 3486.49 H 1543.54"
         style="fill:#176fc1;fill-opacity:1;fill-rule:nonzero;stroke:none"
         id="path46" />
      <path
         d="M 1570.17,3486.49 V 3400.82 H 1559.97 V 3486.49 H 1570.17"
         style="fill:#176fc1;fill-opacity:1;fill-rule:nonzero;stroke:none"
         id="path48" />
      <path
         d="M 1018.54,3309.86 V 3318.86 H 1028.98 V 3328.09 C 1028.98,3333.13 1030.44,3336.95 1033.36,3339.55 1036.28,3342.15 1040.54,3343.45 1046.14,3343.45 1047.1,3343.45 1048.2,3343.38 1049.44,3343.22 1050.68,3343.05 1051.78,3342.81 1052.74,3342.5 V 3333.61 C 1051.86,3333.93 1050.9,3334.16 1049.86,3334.27 1048.82,3334.39 1047.86,3334.45 1046.98,3334.45 1044.5,3334.45 1042.58,3333.97 1041.22,3333.02 1039.86,3332.05 1039.18,3330.21 1039.18,3327.5 V 3318.86 H 1051.18 V 3309.86 H 1039.18 V 3256.81 H 1028.98 V 3309.86 H 1018.54"
         style="fill:#176fc1;fill-opacity:1;fill-rule:nonzero;stroke:none"
         id="path50" />
      <path
         d="M 1069.24,3277.75 C 1070.23,3274.83 1071.62,3272.4 1073.38,3270.43 1075.14,3268.47 1077.2,3266.97 1079.55,3265.93 1081.91,3264.9 1084.42,3264.37 1087.05,3264.37 1089.7,3264.37 1092.2,3264.9 1094.55,3265.93 1096.91,3266.97 1098.97,3268.47 1100.74,3270.43 1102.49,3272.4 1103.88,3274.83 1104.88,3277.75 1105.88,3280.67 1106.38,3284.01 1106.38,3287.77 1106.38,3291.54 1105.88,3294.87 1104.88,3297.79 1103.88,3300.72 1102.49,3303.17 1100.74,3305.17 1098.97,3307.17 1096.91,3308.69 1094.55,3309.73 1092.2,3310.78 1089.7,3311.3 1087.05,3311.3 1084.42,3311.3 1081.91,3310.78 1079.55,3309.73 1077.2,3308.69 1075.14,3307.17 1073.38,3305.17 1071.62,3303.17 1070.23,3300.72 1069.24,3297.79 1068.24,3294.87 1067.74,3291.54 1067.74,3287.77 1067.74,3284.01 1068.24,3280.67 1069.24,3277.75 Z M 1058.86,3300.55 C 1060.14,3304.51 1062.05,3307.95 1064.62,3310.88 1067.18,3313.79 1070.34,3316.09 1074.1,3317.77 1077.86,3319.45 1082.18,3320.29 1087.05,3320.29 1092.02,3320.29 1096.36,3319.45 1100.08,3317.77 1103.8,3316.09 1106.93,3313.79 1109.5,3310.88 1112.05,3307.95 1113.97,3304.51 1115.26,3300.55 1116.54,3296.6 1117.18,3292.33 1117.18,3287.77 1117.18,3283.22 1116.54,3278.97 1115.26,3275.06 1113.97,3271.13 1112.05,3267.71 1109.5,3264.79 1106.93,3261.87 1103.8,3259.59 1100.08,3257.95 1096.36,3256.32 1092.02,3255.5 1087.05,3255.5 1082.18,3255.5 1077.86,3256.32 1074.1,3257.95 1070.34,3259.59 1067.18,3261.87 1064.62,3264.79 1062.05,3267.71 1060.14,3271.13 1058.86,3275.06 1057.58,3278.97 1056.94,3283.22 1056.94,3287.77 1056.94,3292.33 1057.58,3296.6 1058.86,3300.55"
         style="fill:#176fc1;fill-opacity:1;fill-rule:nonzero;stroke:none"
         id="path52" />
      <path
         d="M 1138.42,3318.86 V 3305.78 H 1138.66 C 1141.14,3310.82 1144.18,3314.53 1147.78,3316.93 1151.38,3319.33 1155.94,3320.45 1161.46,3320.29 V 3309.49 C 1157.38,3309.49 1153.9,3308.93 1151.02,3307.81 1148.14,3306.7 1145.81,3305.06 1144.06,3302.89 1142.3,3300.74 1141.01,3298.11 1140.22,3295.04 1139.42,3291.95 1139.02,3288.42 1139.02,3284.41 V 3256.81 H 1128.82 V 3318.86 H 1138.42"
         style="fill:#176fc1;fill-opacity:1;fill-rule:nonzero;stroke:none"
         id="path54" />
      <path
         d="M 1227.33,3256.81 V 3317.77 H 1205.25 V 3325.93 C 1208.13,3325.93 1210.93,3326.15 1213.65,3326.6 1216.37,3327.03 1218.83,3327.85 1221.03,3329.06 1223.23,3330.25 1225.09,3331.89 1226.62,3333.97 1228.13,3336.05 1229.17,3338.69 1229.74,3341.89 H 1237.53 V 3256.81 H 1227.33"
         style="fill:#176fc1;fill-opacity:1;fill-rule:nonzero;stroke:none"
         id="path56" />
      <path
         d="M 1288.29,3301.03 C 1286.14,3300.04 1284.3,3298.67 1282.78,3296.95 1281.26,3295.23 1280.12,3293.19 1279.36,3290.84 1278.6,3288.47 1278.22,3285.97 1278.22,3283.34 1278.22,3280.7 1278.62,3278.22 1279.42,3275.9 1280.21,3273.57 1281.36,3271.58 1282.84,3269.9 1284.32,3268.22 1286.16,3266.87 1288.36,3265.88 1290.56,3264.87 1293.06,3264.37 1295.86,3264.37 1298.66,3264.37 1301.12,3264.87 1303.24,3265.88 1305.36,3266.87 1307.14,3268.26 1308.58,3270.02 1310.02,3271.77 1311.12,3273.8 1311.88,3276.07 1312.64,3278.36 1313.02,3280.74 1313.02,3283.22 1313.02,3285.86 1312.68,3288.36 1312,3290.72 1311.32,3293.07 1310.26,3295.11 1308.82,3296.83 1307.38,3298.55 1305.58,3299.94 1303.42,3300.97 1301.26,3302.01 1298.74,3302.54 1295.86,3302.54 1292.98,3302.54 1290.46,3302.03 1288.29,3301.03 Z M 1306.78,3329.41 C 1304.3,3331.74 1301.02,3332.89 1296.94,3332.89 1292.62,3332.89 1289.13,3331.83 1286.5,3329.71 1283.86,3327.59 1281.8,3324.92 1280.32,3321.68 1278.84,3318.43 1277.82,3314.94 1277.25,3311.17 1276.7,3307.42 1276.38,3303.89 1276.3,3300.61 L 1276.54,3300.37 C 1278.94,3304.29 1281.92,3307.13 1285.48,3308.89 1289.04,3310.65 1293.14,3311.54 1297.78,3311.54 1301.86,3311.54 1305.52,3310.84 1308.76,3309.43 1312,3308.04 1314.72,3306.09 1316.92,3303.61 1319.12,3301.13 1320.82,3298.22 1322.02,3294.86 1323.22,3291.49 1323.82,3287.85 1323.82,3283.93 1323.82,3280.82 1323.34,3277.58 1322.38,3274.22 1321.42,3270.86 1319.84,3267.79 1317.64,3265.04 1315.43,3262.27 1312.52,3260 1308.88,3258.2 1305.24,3256.39 1300.74,3255.5 1295.37,3255.5 1289.06,3255.5 1283.98,3256.77 1280.14,3259.33 1276.3,3261.89 1273.34,3265.17 1271.26,3269.18 1269.17,3273.17 1267.8,3277.58 1267.12,3282.38 1266.43,3287.18 1266.1,3291.81 1266.1,3296.3 1266.1,3302.13 1266.6,3307.79 1267.6,3313.28 1268.6,3318.75 1270.3,3323.61 1272.7,3327.85 1275.1,3332.09 1278.29,3335.49 1282.3,3338.05 1286.3,3340.61 1291.34,3341.89 1297.42,3341.89 1304.46,3341.89 1310.06,3340.04 1314.22,3336.32 1318.38,3332.59 1320.78,3327.21 1321.42,3320.17 H 1311.21 C 1310.74,3324.02 1309.26,3327.09 1306.78,3329.41"
         style="fill:#176fc1;fill-opacity:1;fill-rule:nonzero;stroke:none"
         id="path58" />
      <path
         d="M 1383.16,3296.83 C 1382.4,3299.59 1381.23,3302.05 1379.68,3304.22 1378.11,3306.38 1376.12,3308.09 1373.68,3309.37 1371.23,3310.65 1368.37,3311.3 1365.1,3311.3 1361.65,3311.3 1358.73,3310.61 1356.34,3309.25 1353.93,3307.89 1351.98,3306.11 1350.46,3303.91 1348.93,3301.72 1347.84,3299.22 1347.16,3296.41 1346.47,3293.61 1346.14,3290.78 1346.14,3287.89 1346.14,3284.85 1346.5,3281.91 1347.22,3279.08 1347.93,3276.23 1349.08,3273.73 1350.63,3271.58 1352.2,3269.41 1354.21,3267.67 1356.7,3266.36 1359.17,3265.04 1362.18,3264.37 1365.7,3264.37 1369.21,3264.37 1372.16,3265.06 1374.52,3266.41 1376.88,3267.77 1378.77,3269.57 1380.21,3271.81 1381.65,3274.05 1382.7,3276.62 1383.33,3279.49 1383.97,3282.38 1384.3,3285.33 1384.3,3288.38 1384.3,3291.25 1383.92,3294.08 1383.16,3296.83 Z M 1346.5,3318.86 V 3310.45 H 1346.74 C 1348.42,3313.89 1351.05,3316.39 1354.66,3317.95 1358.26,3319.51 1362.22,3320.29 1366.54,3320.29 1371.34,3320.29 1375.52,3319.41 1379.08,3317.65 1382.64,3315.9 1385.59,3313.51 1387.96,3310.52 1390.32,3307.52 1392.09,3304.05 1393.29,3300.13 1394.5,3296.21 1395.1,3292.05 1395.1,3287.65 1395.1,3283.26 1394.52,3279.1 1393.35,3275.17 1392.2,3271.25 1390.43,3267.83 1388.08,3264.92 1385.72,3261.99 1382.75,3259.7 1379.2,3258.02 1375.63,3256.34 1371.49,3255.5 1366.78,3255.5 1365.25,3255.5 1363.55,3255.66 1361.67,3255.97 1359.79,3256.3 1357.93,3256.81 1356.1,3257.54 1354.26,3258.26 1352.51,3259.24 1350.88,3260.48 1349.24,3261.72 1347.86,3263.26 1346.74,3265.09 H 1346.5 V 3233.18 H 1336.3 V 3318.86 H 1346.5"
         style="fill:#176fc1;fill-opacity:1;fill-rule:nonzero;stroke:none"
         id="path60" />
      <path
         d="M 1402.17,3318.86 H 1415.25 L 1430.13,3297.14 1445.61,3318.86 H 1457.86 L 1436.49,3290.29 1460.49,3256.81 H 1447.41 L 1430.13,3282.5 1412.86,3256.81 H 1400.49 L 1423.77,3289.45 1402.17,3318.86"
         style="fill:#176fc1;fill-opacity:1;fill-rule:nonzero;stroke:none"
         id="path62" />
      <path
         d="M 1502.25,3294.98 V 3285.37 H 1467.57 V 3294.98 H 1502.25"
         style="fill:#176fc1;fill-opacity:1;fill-rule:nonzero;stroke:none"
         id="path64" />
      <path
         d="M 1540.77,3256.81 V 3317.77 H 1518.69 V 3325.93 C 1521.57,3325.93 1524.37,3326.15 1527.09,3326.6 1529.81,3327.03 1532.27,3327.85 1534.47,3329.06 1536.67,3330.25 1538.53,3331.89 1540.05,3333.97 1541.57,3336.05 1542.61,3338.69 1543.17,3341.89 H 1550.97 V 3256.81 H 1540.77"
         style="fill:#176fc1;fill-opacity:1;fill-rule:nonzero;stroke:none"
         id="path66" />
      <path
         d="M 1581.57,3323.77 C 1582.69,3327.46 1584.43,3330.63 1586.79,3333.32 1589.15,3335.99 1592.09,3338.09 1595.61,3339.61 1599.13,3341.13 1603.13,3341.89 1607.61,3341.89 1611.29,3341.89 1614.75,3341.36 1617.99,3340.27 1621.23,3339.2 1624.05,3337.63 1626.45,3335.59 1628.85,3333.55 1630.75,3331.01 1632.15,3327.98 1633.55,3324.94 1634.25,3321.41 1634.25,3317.42 1634.25,3313.65 1633.67,3310.33 1632.51,3307.46 1631.35,3304.57 1629.81,3301.99 1627.89,3299.71 1625.97,3297.44 1623.77,3295.37 1621.29,3293.53 1618.81,3291.7 1616.25,3289.94 1613.61,3288.26 1610.97,3286.66 1608.33,3285.08 1605.69,3283.51 1603.05,3281.95 1600.63,3280.29 1598.43,3278.53 1596.23,3276.77 1594.35,3274.88 1592.79,3272.83 1591.23,3270.8 1590.21,3268.45 1589.73,3265.82 H 1633.41 V 3256.81 H 1577.85 C 1578.25,3261.85 1579.15,3266.15 1580.55,3269.71 1581.95,3273.28 1583.73,3276.38 1585.89,3279.02 1588.05,3281.66 1590.49,3283.97 1593.21,3285.97 1595.93,3287.97 1598.77,3289.85 1601.73,3291.62 1605.33,3293.86 1608.49,3295.92 1611.21,3297.79 1613.93,3299.67 1616.19,3301.58 1617.99,3303.49 1619.79,3305.41 1621.15,3307.5 1622.07,3309.73 1622.99,3311.97 1623.45,3314.57 1623.45,3317.54 1623.45,3319.85 1623.01,3321.95 1622.13,3323.84 1621.25,3325.71 1620.07,3327.33 1618.59,3328.69 1617.11,3330.06 1615.37,3331.09 1613.37,3331.81 1611.37,3332.54 1609.25,3332.89 1607.01,3332.89 1604.05,3332.89 1601.51,3332.27 1599.39,3331.03 1597.27,3329.79 1595.53,3328.17 1594.17,3326.17 1592.81,3324.18 1591.83,3321.91 1591.23,3319.39 1590.63,3316.87 1590.37,3314.33 1590.45,3311.77 H 1580.25 C 1580.01,3316.09 1580.45,3320.09 1581.57,3323.77"
         style="fill:#176fc1;fill-opacity:1;fill-rule:nonzero;stroke:none"
         id="path68" />
      <path
         d="M 1657.83,3287.95 C 1658.03,3283.99 1658.68,3280.27 1659.75,3276.79 1660.83,3273.32 1662.57,3270.37 1664.97,3267.98 1667.37,3265.57 1670.73,3264.37 1675.05,3264.37 1679.38,3264.37 1682.73,3265.57 1685.14,3267.98 1687.53,3270.37 1689.27,3273.32 1690.36,3276.79 1691.43,3280.27 1692.07,3283.99 1692.27,3287.95 1692.47,3291.91 1692.57,3295.5 1692.57,3298.69 1692.57,3300.78 1692.55,3303.07 1692.51,3305.59 1692.47,3308.11 1692.27,3310.63 1691.91,3313.15 1691.55,3315.68 1691.04,3318.13 1690.36,3320.54 1689.67,3322.93 1688.68,3325.04 1687.35,3326.83 1686.04,3328.63 1684.38,3330.09 1682.37,3331.21 1680.37,3332.33 1677.93,3332.89 1675.05,3332.89 1672.17,3332.89 1669.73,3332.33 1667.73,3331.21 1665.73,3330.09 1664.07,3328.63 1662.75,3326.83 1661.43,3325.04 1660.43,3322.93 1659.75,3320.54 1659.07,3318.13 1658.55,3315.68 1658.19,3313.15 1657.83,3310.63 1657.63,3308.11 1657.59,3305.59 1657.55,3303.07 1657.53,3300.78 1657.53,3298.69 1657.53,3295.5 1657.63,3291.91 1657.83,3287.95 Z M 1646.97,3308.3 C 1647.13,3311.66 1647.53,3314.94 1648.17,3318.13 1648.81,3321.33 1649.74,3324.37 1650.93,3327.25 1652.13,3330.13 1653.77,3332.65 1655.85,3334.81 1657.93,3336.97 1660.55,3338.69 1663.71,3339.98 1666.88,3341.25 1670.65,3341.89 1675.05,3341.89 1679.45,3341.89 1683.23,3341.25 1686.4,3339.98 1689.55,3338.69 1692.17,3336.97 1694.25,3334.81 1696.33,3332.65 1697.97,3330.13 1699.17,3327.25 1700.37,3324.37 1701.29,3321.33 1701.93,3318.13 1702.57,3314.94 1702.97,3311.66 1703.13,3308.3 1703.29,3304.94 1703.37,3301.7 1703.37,3298.57 1703.37,3295.45 1703.29,3292.21 1703.13,3288.86 1702.97,3285.5 1702.57,3282.21 1701.93,3279.02 1701.29,3275.82 1700.37,3272.79 1699.17,3269.96 1697.97,3267.11 1696.33,3264.61 1694.25,3262.46 1692.17,3260.29 1689.57,3258.59 1686.45,3257.36 1683.33,3256.11 1679.54,3255.5 1675.05,3255.5 1670.65,3255.5 1666.88,3256.11 1663.71,3257.36 1660.55,3258.59 1657.93,3260.29 1655.85,3262.46 1653.77,3264.61 1652.13,3267.11 1650.93,3269.96 1649.74,3272.79 1648.81,3275.82 1648.17,3279.02 1647.53,3282.21 1647.13,3285.5 1646.97,3288.86 1646.81,3292.21 1646.73,3295.45 1646.73,3298.57 1646.73,3301.7 1646.81,3304.94 1646.97,3308.3"
         style="fill:#176fc1;fill-opacity:1;fill-rule:nonzero;stroke:none"
         id="path70" />
      <path
         d="M 1763.31,3296.83 C 1762.55,3299.59 1761.39,3302.05 1759.83,3304.22 1758.27,3306.38 1756.27,3308.09 1753.83,3309.37 1751.39,3310.65 1748.53,3311.3 1745.25,3311.3 1741.81,3311.3 1738.89,3310.61 1736.49,3309.25 1734.09,3307.89 1732.13,3306.11 1730.61,3303.91 1729.09,3301.72 1727.99,3299.22 1727.31,3296.41 1726.63,3293.61 1726.29,3290.78 1726.29,3287.89 1726.29,3284.85 1726.65,3281.91 1727.37,3279.08 1728.09,3276.23 1729.23,3273.73 1730.79,3271.58 1732.35,3269.41 1734.37,3267.67 1736.86,3266.36 1739.33,3265.04 1742.33,3264.37 1745.85,3264.37 1749.37,3264.37 1752.31,3265.06 1754.67,3266.41 1757.03,3267.77 1758.93,3269.57 1760.37,3271.81 1761.81,3274.05 1762.85,3276.62 1763.49,3279.49 1764.13,3282.38 1764.45,3285.33 1764.45,3288.38 1764.45,3291.25 1764.07,3294.08 1763.31,3296.83 Z M 1726.65,3318.86 V 3310.45 H 1726.89 C 1728.57,3313.89 1731.21,3316.39 1734.81,3317.95 1738.41,3319.51 1742.37,3320.29 1746.69,3320.29 1751.49,3320.29 1755.67,3319.41 1759.23,3317.65 1762.79,3315.9 1765.75,3313.51 1768.11,3310.52 1770.47,3307.52 1772.25,3304.05 1773.45,3300.13 1774.65,3296.21 1775.25,3292.05 1775.25,3287.65 1775.25,3283.26 1774.67,3279.1 1773.51,3275.17 1772.35,3271.25 1770.59,3267.83 1768.23,3264.92 1765.87,3261.99 1762.91,3259.7 1759.36,3258.02 1755.79,3256.34 1751.65,3255.5 1746.93,3255.5 1745.41,3255.5 1743.71,3255.66 1741.83,3255.97 1739.95,3256.3 1738.09,3256.81 1736.25,3257.54 1734.41,3258.26 1732.67,3259.24 1731.04,3260.48 1729.39,3261.72 1728.01,3263.26 1726.89,3265.09 H 1726.65 V 3233.18 H 1716.45 V 3318.86 H 1726.65"
         style="fill:#176fc1;fill-opacity:1;fill-rule:nonzero;stroke:none"
         id="path72" />
      <path
         d="M 1782.33,3318.86 H 1795.41 L 1810.29,3297.14 1825.77,3318.86 H 1838.01 L 1816.65,3290.29 1840.65,3256.81 H 1827.57 L 1810.29,3282.5 1793.01,3256.81 H 1780.65 L 1803.93,3289.45 1782.33,3318.86"
         style="fill:#176fc1;fill-opacity:1;fill-rule:nonzero;stroke:none"
         id="path74" />
      <path
         d="M 3356.33,3486.5 V 3410.43 H 3401.69 V 3400.82 H 3344.94 V 3486.5 H 3356.33"
         style="fill:#176fc1;fill-opacity:1;fill-rule:nonzero;stroke:none"
         id="path76" />
      <path
         d="M 3443.33,3430.76 C 3441.24,3430.32 3439.08,3429.96 3436.79,3429.68 3434.51,3429.4 3432.2,3429.08 3429.89,3428.73 3427.57,3428.36 3425.48,3427.78 3423.65,3426.99 3421.81,3426.19 3420.31,3425.04 3419.15,3423.56 3417.98,3422.09 3417.42,3420.06 3417.42,3417.5 3417.42,3415.82 3417.75,3414.4 3418.43,3413.24 3419.11,3412.09 3419.99,3411.15 3421.07,3410.43 3422.14,3409.7 3423.43,3409.18 3424.92,3408.86 3426.39,3408.54 3427.88,3408.38 3429.41,3408.38 3432.77,3408.38 3435.65,3408.84 3438.05,3409.76 3440.44,3410.68 3442.41,3411.84 3443.93,3413.24 3445.44,3414.65 3446.58,3416.17 3447.29,3417.81 3448,3419.44 3448.37,3420.98 3448.37,3422.42 V 3432.87 C 3447.08,3431.9 3445.4,3431.21 3443.33,3430.76 Z M 3457.61,3399.51 C 3454.97,3399.51 3452.87,3400.24 3451.3,3401.72 3449.75,3403.2 3448.97,3405.62 3448.97,3408.98 3446.17,3405.62 3442.9,3403.2 3439.19,3401.72 3435.46,3400.24 3431.45,3399.51 3427.12,3399.51 3424.33,3399.51 3421.69,3399.8 3419.21,3400.41 3416.73,3401 3414.54,3402.01 3412.67,3403.4 3410.79,3404.8 3409.31,3406.6 3408.24,3408.81 3407.14,3411 3406.62,3413.67 3406.62,3416.79 3406.62,3420.3 3407.21,3423.18 3408.41,3425.43 3409.6,3427.66 3411.19,3429.48 3413.15,3430.88 3415.11,3432.28 3417.35,3433.34 3419.87,3434.06 3422.39,3434.78 3424.97,3435.39 3427.61,3435.86 3430.4,3436.42 3433.07,3436.84 3435.59,3437.13 3438.11,3437.4 3440.33,3437.8 3442.25,3438.32 3444.17,3438.84 3445.69,3439.61 3446.81,3440.6 3447.92,3441.6 3448.49,3443.06 3448.49,3444.98 3448.49,3447.22 3448.07,3449.02 3447.23,3450.39 3446.39,3451.74 3445.31,3452.78 3443.99,3453.5 3442.67,3454.22 3441.19,3454.7 3439.54,3454.94 3437.9,3455.18 3436.28,3455.31 3434.69,3455.31 3430.37,3455.31 3426.77,3454.48 3423.89,3452.85 3421.01,3451.21 3419.45,3448.1 3419.21,3443.54 H 3409.01 C 3409.17,3447.38 3409.97,3450.62 3411.41,3453.26 3412.85,3455.9 3414.77,3458.04 3417.16,3459.68 3419.56,3461.33 3422.33,3462.5 3425.44,3463.22 3428.57,3463.94 3431.85,3464.3 3435.29,3464.3 3438.09,3464.3 3440.87,3464.1 3443.63,3463.71 3446.39,3463.3 3448.89,3462.48 3451.13,3461.25 3453.37,3460 3455.17,3458.26 3456.53,3456.02 3457.88,3453.79 3458.57,3450.86 3458.57,3447.26 V 3415.35 C 3458.57,3412.95 3458.71,3411.19 3458.99,3410.06 3459.27,3408.94 3460.21,3408.38 3461.81,3408.38 3462.69,3408.38 3463.72,3408.58 3464.94,3408.98 V 3401.06 C 3463.17,3400.02 3460.74,3399.51 3457.61,3399.51"
         style="fill:#176fc1;fill-opacity:1;fill-rule:nonzero;stroke:none"
         id="path78" />
      <path
         d="M 3483.65,3462.87 V 3449.78 H 3483.88 C 3486.36,3454.82 3489.41,3458.54 3493,3460.95 3496.61,3463.34 3501.17,3464.46 3506.69,3464.3 V 3453.5 C 3502.61,3453.5 3499.13,3452.95 3496.24,3451.82 3493.37,3450.7 3491.05,3449.06 3489.29,3446.9 3487.53,3444.74 3486.24,3442.13 3485.44,3439.04 3484.64,3435.96 3484.25,3432.42 3484.25,3428.42 V 3400.82 H 3474.05 V 3462.87 H 3483.65"
         style="fill:#176fc1;fill-opacity:1;fill-rule:nonzero;stroke:none"
         id="path80" />
      <path
         d="M 3544.54,3411.21 C 3546.91,3412.59 3548.8,3414.44 3550.25,3416.72 3551.69,3419 3552.75,3421.58 3553.43,3424.46 3554.11,3427.34 3554.45,3430.22 3554.45,3433.1 3554.45,3435.82 3554.13,3438.5 3553.49,3441.15 3552.85,3443.79 3551.83,3446.17 3550.42,3448.28 3549.03,3450.41 3547.2,3452.11 3544.97,3453.38 3542.73,3454.67 3540.01,3455.31 3536.81,3455.31 3533.53,3455.31 3530.73,3454.68 3528.41,3453.45 3526.09,3452.2 3524.19,3450.54 3522.71,3448.46 3521.22,3446.38 3520.15,3443.98 3519.47,3441.27 3518.78,3438.54 3518.45,3435.7 3518.45,3432.74 3518.45,3429.94 3518.72,3427.15 3519.29,3424.34 3519.85,3421.54 3520.81,3419 3522.16,3416.72 3523.53,3414.44 3525.33,3412.59 3527.57,3411.21 3529.81,3409.8 3532.61,3409.1 3535.97,3409.1 3539.33,3409.1 3542.18,3409.8 3544.54,3411.21 Z M 3557.57,3383.3 C 3552.92,3378.26 3545.65,3375.74 3535.74,3375.74 3532.85,3375.74 3529.92,3376.06 3526.91,3376.7 3523.91,3377.34 3521.19,3378.38 3518.74,3379.82 3516.3,3381.27 3514.29,3383.14 3512.69,3385.47 3511.09,3387.79 3510.21,3390.62 3510.05,3393.98 H 3520.25 C 3520.33,3392.15 3520.91,3390.58 3521.99,3389.3 3523.07,3388.02 3524.39,3386.99 3525.95,3386.19 3527.51,3385.39 3529.21,3384.8 3531.05,3384.44 3532.88,3384.08 3534.64,3383.9 3536.32,3383.9 3539.69,3383.9 3542.53,3384.49 3544.85,3385.64 3547.16,3386.8 3549.1,3388.4 3550.61,3390.45 3552.12,3392.48 3553.23,3394.94 3553.91,3397.83 3554.58,3400.7 3554.94,3403.86 3554.94,3407.3 V 3411.38 H 3554.69 C 3552.92,3407.54 3550.27,3404.72 3546.71,3402.93 3543.15,3401.12 3539.37,3400.22 3535.37,3400.22 3530.73,3400.22 3526.69,3401.06 3523.26,3402.74 3519.81,3404.42 3516.93,3406.68 3514.6,3409.53 3512.29,3412.36 3510.54,3415.68 3509.39,3419.49 3508.23,3423.28 3507.65,3427.3 3507.65,3431.54 3507.65,3435.22 3508.13,3439 3509.1,3442.89 3510.05,3446.75 3511.65,3450.28 3513.89,3453.45 3516.13,3456.6 3519.1,3459.2 3522.77,3461.25 3526.45,3463.28 3530.97,3464.3 3536.32,3464.3 3540.25,3464.3 3543.84,3463.43 3547.12,3461.72 3550.4,3460 3552.96,3457.42 3554.81,3453.98 H 3554.94 V 3462.87 H 3564.53 V 3406.1 C 3564.53,3395.95 3562.2,3388.34 3557.57,3383.3"
         style="fill:#176fc1;fill-opacity:1;fill-rule:nonzero;stroke:none"
         id="path82" />
      <path
         d="M 3621.34,3444.63 C 3620.42,3446.79 3619.19,3448.65 3617.63,3450.2 3616.07,3451.77 3614.22,3453 3612.1,3453.92 3609.98,3454.84 3607.65,3455.31 3605.09,3455.31 3602.45,3455.31 3600.06,3454.84 3597.94,3453.92 3595.82,3453 3594,3451.74 3592.48,3450.14 3590.97,3448.54 3589.76,3446.68 3588.88,3444.57 3588,3442.44 3587.48,3440.18 3587.33,3437.78 H 3622.96 C 3622.81,3440.18 3622.26,3442.46 3621.34,3444.63 Z M 3623.8,3404.78 C 3619.17,3401.27 3613.32,3399.51 3606.28,3399.51 3601.32,3399.51 3597.03,3400.31 3593.39,3401.9 3589.74,3403.5 3586.68,3405.74 3584.21,3408.62 3581.73,3411.5 3579.87,3414.94 3578.63,3418.94 3577.39,3422.95 3576.68,3427.3 3576.53,3432.03 3576.53,3436.74 3577.24,3441.06 3578.69,3444.98 3580.13,3448.9 3582.14,3452.3 3584.74,3455.18 3587.34,3458.06 3590.42,3460.3 3593.99,3461.9 3597.54,3463.5 3601.44,3464.3 3605.69,3464.3 3611.21,3464.3 3615.79,3463.16 3619.43,3460.88 3623.06,3458.6 3625.99,3455.7 3628.19,3452.18 3630.38,3448.66 3631.91,3444.82 3632.75,3440.66 3633.59,3436.5 3633.92,3432.54 3633.76,3428.79 H 3587.33 C 3587.24,3426.06 3587.57,3423.48 3588.29,3421.04 3589.01,3418.6 3590.17,3416.44 3591.77,3414.57 3593.36,3412.68 3595.4,3411.19 3597.88,3410.06 3600.37,3408.94 3603.29,3408.38 3606.64,3408.38 3610.97,3408.38 3614.51,3409.38 3617.26,3411.38 3620.03,3413.38 3621.85,3416.42 3622.73,3420.5 H 3632.81 C 3631.44,3413.54 3628.45,3408.3 3623.8,3404.78"
         style="fill:#176fc1;fill-opacity:1;fill-rule:nonzero;stroke:none"
         id="path84" />
      <path
         d="M 3653.57,3462.87 V 3449.78 H 3653.8 C 3656.28,3454.82 3659.33,3458.54 3662.92,3460.95 3666.52,3463.34 3671.09,3464.46 3676.61,3464.3 V 3453.5 C 3672.52,3453.5 3669.05,3452.95 3666.17,3451.82 3663.29,3450.7 3660.96,3449.06 3659.2,3446.9 3657.45,3444.74 3656.17,3442.13 3655.37,3439.04 3654.56,3435.96 3654.17,3432.42 3654.17,3428.42 V 3400.82 H 3643.96 V 3462.87 H 3653.57"
         style="fill:#176fc1;fill-opacity:1;fill-rule:nonzero;stroke:none"
         id="path86" />
      <path
         d="M 3182.57,3309.86 V 3318.86 H 3193.01 V 3328.1 C 3193.01,3333.14 3194.47,3336.97 3197.4,3339.57 3200.31,3342.17 3204.56,3343.46 3210.17,3343.46 3211.13,3343.46 3212.23,3343.38 3213.47,3343.22 3214.71,3343.06 3215.81,3342.83 3216.77,3342.5 V 3333.63 C 3215.89,3333.94 3214.94,3334.16 3213.89,3334.29 3212.85,3334.4 3211.89,3334.47 3211.01,3334.47 3208.53,3334.47 3206.62,3333.98 3205.25,3333.02 3203.89,3332.07 3203.22,3330.22 3203.22,3327.5 V 3318.86 H 3215.21 V 3309.86 H 3203.22 V 3256.82 H 3193.01 V 3309.86 H 3182.57"
         style="fill:#176fc1;fill-opacity:1;fill-rule:nonzero;stroke:none"
         id="path88" />
      <path
         d="M 3233.28,3277.77 C 3234.27,3274.84 3235.65,3272.4 3237.42,3270.45 3239.17,3268.48 3241.22,3266.99 3243.59,3265.95 3245.95,3264.9 3248.45,3264.38 3251.09,3264.38 3253.72,3264.38 3256.22,3264.9 3258.59,3265.95 3260.95,3266.99 3263,3268.48 3264.77,3270.45 3266.53,3272.4 3267.9,3274.84 3268.91,3277.77 3269.92,3280.68 3270.4,3284.02 3270.4,3287.79 3270.4,3291.54 3269.92,3294.88 3268.91,3297.81 3267.9,3300.72 3266.53,3303.18 3264.77,3305.18 3263,3307.18 3260.95,3308.71 3258.59,3309.74 3256.22,3310.78 3253.72,3311.31 3251.09,3311.31 3248.45,3311.31 3245.95,3310.78 3243.59,3309.74 3241.22,3308.71 3239.17,3307.18 3237.42,3305.18 3235.65,3303.18 3234.27,3300.72 3233.28,3297.81 3232.27,3294.88 3231.77,3291.54 3231.77,3287.79 3231.77,3284.02 3232.27,3280.68 3233.28,3277.77 Z M 3222.88,3300.56 C 3224.17,3304.53 3226.09,3307.97 3228.65,3310.88 3231.21,3313.81 3234.37,3316.11 3238.13,3317.79 3241.89,3319.47 3246.21,3320.31 3251.09,3320.31 3256.05,3320.31 3260.38,3319.47 3264.12,3317.79 3267.83,3316.11 3270.97,3313.81 3273.53,3310.88 3276.09,3307.97 3278,3304.53 3279.29,3300.56 3280.57,3296.6 3281.21,3292.34 3281.21,3287.79 3281.21,3283.22 3280.57,3278.98 3279.29,3275.07 3278,3271.15 3276.09,3267.72 3273.53,3264.8 3270.97,3261.88 3267.83,3259.61 3264.12,3257.97 3260.38,3256.33 3256.05,3255.5 3251.09,3255.5 3246.21,3255.5 3241.89,3256.33 3238.13,3257.97 3234.37,3259.61 3231.21,3261.88 3228.65,3264.8 3226.09,3267.72 3224.17,3271.15 3222.88,3275.07 3221.62,3278.98 3220.97,3283.22 3220.97,3287.79 3220.97,3292.34 3221.62,3296.6 3222.88,3300.56"
         style="fill:#176fc1;fill-opacity:1;fill-rule:nonzero;stroke:none"
         id="path90" />
      <path
         d="M 3302.46,3318.86 V 3305.78 H 3302.69 C 3305.17,3310.82 3308.22,3314.55 3311.81,3316.95 3315.4,3319.34 3319.97,3320.47 3325.49,3320.31 V 3309.51 C 3321.41,3309.51 3317.93,3308.94 3315.05,3307.83 3312.17,3306.7 3309.85,3305.07 3308.09,3302.91 3306.33,3300.74 3305.05,3298.12 3304.25,3295.04 3303.45,3291.97 3303.05,3288.43 3303.05,3284.42 V 3256.82 H 3292.85 V 3318.86 H 3302.46"
         style="fill:#176fc1;fill-opacity:1;fill-rule:nonzero;stroke:none"
         id="path92" />
      <path
         d="M 3391.36,3256.82 V 3317.79 H 3369.29 V 3325.95 C 3372.16,3325.95 3374.96,3326.17 3377.69,3326.6 3380.4,3327.05 3382.87,3327.87 3385.07,3329.06 3387.26,3330.27 3389.12,3331.9 3390.65,3333.98 3392.16,3336.06 3393.21,3338.71 3393.76,3341.9 H 3401.57 V 3256.82 H 3391.36"
         style="fill:#176fc1;fill-opacity:1;fill-rule:nonzero;stroke:none"
         id="path94" />
      <path
         d="M 3432.17,3323.79 C 3433.29,3327.46 3435.03,3330.64 3437.4,3333.32 3439.75,3336 3442.69,3338.1 3446.21,3339.63 3449.73,3341.14 3453.72,3341.9 3458.22,3341.9 3461.89,3341.9 3465.35,3341.36 3468.59,3340.29 3471.83,3339.2 3474.65,3337.64 3477.04,3335.6 3479.45,3333.56 3481.35,3331.02 3482.75,3327.99 3484.15,3324.94 3484.86,3321.42 3484.86,3317.42 3484.86,3313.67 3484.27,3310.35 3483.11,3307.46 3481.95,3304.59 3480.4,3302.01 3478.49,3299.72 3476.58,3297.44 3474.37,3295.39 3471.89,3293.54 3469.41,3291.7 3466.85,3289.94 3464.21,3288.26 3461.58,3286.66 3458.93,3285.09 3456.28,3283.52 3453.65,3281.97 3451.22,3280.3 3449.04,3278.54 3446.83,3276.79 3444.96,3274.88 3443.39,3272.85 3441.83,3270.8 3440.81,3268.46 3440.33,3265.82 H 3484.02 V 3256.82 H 3428.45 C 3428.85,3261.86 3429.75,3266.17 3431.15,3269.72 3432.55,3273.28 3434.33,3276.38 3436.49,3279.02 3438.65,3281.66 3441.09,3283.98 3443.81,3285.98 3446.53,3287.99 3449.37,3289.86 3452.33,3291.62 3455.93,3293.86 3459.1,3295.93 3461.81,3297.81 3464.53,3299.68 3466.79,3301.58 3468.59,3303.5 3470.38,3305.43 3471.75,3307.5 3472.67,3309.74 3473.59,3311.99 3474.06,3314.59 3474.06,3317.54 3474.06,3319.86 3473.61,3321.97 3472.73,3323.84 3471.85,3325.72 3470.67,3327.34 3469.19,3328.71 3467.71,3330.06 3465.97,3331.11 3463.97,3331.82 3461.97,3332.54 3459.85,3332.91 3457.61,3332.91 3454.64,3332.91 3452.1,3332.28 3449.99,3331.04 3447.87,3329.8 3446.13,3328.18 3444.77,3326.19 3443.41,3324.18 3442.44,3321.92 3441.83,3319.4 3441.22,3316.88 3440.97,3314.34 3441.05,3311.79 H 3430.85 C 3430.61,3316.11 3431.05,3320.11 3432.17,3323.79"
         style="fill:#176fc1;fill-opacity:1;fill-rule:nonzero;stroke:none"
         id="path96" />
      <path
         d="M 3508.43,3287.97 C 3508.63,3284 3509.27,3280.29 3510.35,3276.8 3511.43,3273.32 3513.17,3270.39 3515.57,3267.99 3517.96,3265.58 3521.32,3264.38 3525.65,3264.38 3529.97,3264.38 3533.33,3265.58 3535.74,3267.99 3538.13,3270.39 3539.87,3273.32 3540.95,3276.8 3542.03,3280.29 3542.67,3284 3542.87,3287.97 3543.06,3291.92 3543.17,3295.5 3543.17,3298.71 3543.17,3300.78 3543.15,3303.08 3543.11,3305.6 3543.06,3308.12 3542.87,3310.64 3542.51,3313.16 3542.14,3315.68 3541.63,3318.14 3540.95,3320.54 3540.27,3322.95 3539.27,3325.04 3537.94,3326.84 3536.63,3328.65 3534.97,3330.09 3532.96,3331.23 3530.97,3332.34 3528.53,3332.91 3525.65,3332.91 3522.77,3332.91 3520.33,3332.34 3518.33,3331.23 3516.32,3330.09 3514.66,3328.65 3513.35,3326.84 3512.03,3325.04 3511.03,3322.95 3510.35,3320.54 3509.66,3318.14 3509.15,3315.68 3508.78,3313.16 3508.43,3310.64 3508.23,3308.12 3508.19,3305.6 3508.15,3303.08 3508.13,3300.78 3508.13,3298.71 3508.13,3295.5 3508.23,3291.92 3508.43,3287.97 Z M 3497.57,3308.3 C 3497.73,3311.66 3498.13,3314.94 3498.76,3318.14 3499.41,3321.34 3500.33,3324.38 3501.53,3327.26 3502.73,3330.14 3504.37,3332.66 3506.45,3334.82 3508.53,3336.99 3511.15,3338.71 3514.31,3339.98 3517.47,3341.27 3521.24,3341.9 3525.65,3341.9 3530.05,3341.9 3533.82,3341.27 3536.99,3339.98 3540.15,3338.71 3542.77,3336.99 3544.85,3334.82 3546.93,3332.66 3548.57,3330.14 3549.77,3327.26 3550.97,3324.38 3551.89,3321.34 3552.53,3318.14 3553.17,3314.94 3553.57,3311.66 3553.72,3308.3 3553.89,3304.94 3553.97,3301.7 3553.97,3298.58 3553.97,3295.47 3553.89,3292.22 3553.72,3288.86 3553.57,3285.5 3553.17,3282.22 3552.53,3279.02 3551.89,3275.82 3550.97,3272.8 3549.77,3269.96 3548.57,3267.13 3546.93,3264.63 3544.85,3262.46 3542.77,3260.31 3540.17,3258.6 3537.04,3257.36 3533.93,3256.13 3530.13,3255.5 3525.65,3255.5 3521.24,3255.5 3517.47,3256.13 3514.31,3257.36 3511.15,3258.6 3508.53,3260.31 3506.45,3262.46 3504.37,3264.63 3502.73,3267.13 3501.53,3269.96 3500.33,3272.8 3499.41,3275.82 3498.76,3279.02 3498.13,3282.22 3497.73,3285.5 3497.57,3288.86 3497.41,3292.22 3497.33,3295.47 3497.33,3298.58 3497.33,3301.7 3497.41,3304.94 3497.57,3308.3"
         style="fill:#176fc1;fill-opacity:1;fill-rule:nonzero;stroke:none"
         id="path98" />
      <path
         d="M 3613.91,3296.84 C 3613.15,3299.61 3611.99,3302.07 3610.42,3304.23 3608.86,3306.38 3606.87,3308.1 3604.43,3309.38 3601.99,3310.66 3599.12,3311.31 3595.85,3311.31 3592.41,3311.31 3589.49,3310.62 3587.08,3309.27 3584.68,3307.91 3582.73,3306.13 3581.21,3303.92 3579.68,3301.72 3578.59,3299.22 3577.9,3296.42 3577.22,3293.62 3576.89,3290.78 3576.89,3287.91 3576.89,3284.86 3577.25,3281.92 3577.96,3279.08 3578.69,3276.25 3579.83,3273.75 3581.38,3271.58 3582.94,3269.42 3584.96,3267.68 3587.46,3266.36 3589.93,3265.04 3592.92,3264.38 3596.45,3264.38 3599.96,3264.38 3602.9,3265.06 3605.27,3266.42 3607.63,3267.78 3609.53,3269.59 3610.97,3271.82 3612.41,3274.06 3613.45,3276.62 3614.09,3279.51 3614.72,3282.38 3615.05,3285.35 3615.05,3288.38 3615.05,3291.27 3614.66,3294.08 3613.91,3296.84 Z M 3577.25,3318.86 V 3310.47 H 3577.49 C 3579.17,3313.9 3581.81,3316.4 3585.4,3317.97 3589.01,3319.53 3592.96,3320.31 3597.29,3320.31 3602.08,3320.31 3606.26,3319.42 3609.83,3317.66 3613.39,3315.9 3616.34,3313.52 3618.71,3310.52 3621.07,3307.52 3622.85,3304.06 3624.05,3300.14 3625.25,3296.23 3625.85,3292.07 3625.85,3287.66 3625.85,3283.26 3625.27,3279.1 3624.11,3275.18 3622.94,3271.27 3621.19,3267.85 3618.82,3264.92 3616.47,3262.01 3613.51,3259.7 3609.96,3258.02 3606.38,3256.34 3602.24,3255.5 3597.53,3255.5 3596.01,3255.5 3594.31,3255.66 3592.43,3255.98 3590.54,3256.31 3588.69,3256.82 3586.85,3257.54 3585.01,3258.26 3583.27,3259.24 3581.63,3260.49 3579.99,3261.72 3578.61,3263.26 3577.49,3265.11 H 3577.25 V 3233.18 H 3567.04 V 3318.86 H 3577.25"
         style="fill:#176fc1;fill-opacity:1;fill-rule:nonzero;stroke:none"
         id="path100" />
      <path
         d="M 3632.92,3318.86 H 3646.01 L 3660.88,3297.15 3676.36,3318.86 H 3688.61 L 3667.24,3290.31 3691.24,3256.82 H 3678.16 L 3660.88,3282.5 3643.61,3256.82 H 3631.24 L 3654.53,3289.47 3632.92,3318.86"
         style="fill:#176fc1;fill-opacity:1;fill-rule:nonzero;stroke:none"
         id="path102" />
      <path
         d="M 3791.93,3291.27 V 3283.1 H 3765.77 V 3256.82 H 3757.61 V 3283.1 H 3731.45 V 3291.27 H 3757.61 V 3317.54 H 3765.77 V 3291.27 H 3791.93"
         style="fill:#176fc1;fill-opacity:1;fill-rule:nonzero;stroke:none"
         id="path104" />
      <path
         d="M 1526.08,1685.45 C 1436.14,1685.45 1363.2,1612.52 1363.2,1522.55 1363.2,1450.58 1409.87,1389.53 1474.6,1367.99 1482.75,1366.49 1485.72,1371.52 1485.72,1375.84 1485.72,1379.71 1485.58,1389.95 1485.5,1403.54 1440.19,1393.7 1430.63,1425.38 1430.63,1425.38 1423.22,1444.2 1412.54,1449.21 1412.54,1449.21 1397.75,1459.31 1413.66,1459.11 1413.66,1459.11 1430.01,1457.96 1438.61,1442.32 1438.61,1442.32 1453.14,1417.43 1476.74,1424.62 1486.02,1428.79 1487.5,1439.31 1491.71,1446.49 1496.36,1450.56 1460.19,1454.67 1422.16,1468.65 1422.16,1531.07 1422.16,1548.85 1428.51,1563.4 1438.93,1574.78 1437.25,1578.9 1431.66,1595.47 1440.53,1617.89 1440.53,1617.89 1454.2,1622.27 1485.32,1601.19 1498.31,1604.81 1512.25,1606.61 1526.1,1606.68 1539.94,1606.61 1553.87,1604.81 1566.88,1601.19 1597.98,1622.27 1611.63,1617.89 1611.63,1617.89 1620.52,1595.47 1614.93,1578.9 1613.26,1574.78 1623.7,1563.4 1630,1548.85 1630,1531.07 1630,1468.49 1591.91,1454.72 1555.63,1450.69 1561.47,1445.66 1566.68,1435.72 1566.68,1420.53 1566.68,1398.75 1566.48,1381.18 1566.48,1375.84 1566.48,1371.48 1569.42,1366.41 1577.68,1368 1642.36,1389.59 1688.99,1450.6 1688.99,1522.55 1688.99,1612.52 1616.05,1685.45 1526.08,1685.45"
         style="fill:#ffffff;fill-opacity:1;fill-rule:evenodd;stroke:none"
         id="path106" />
      <path
         d="M 3506.09,2175.54 C 3172.62,2175.54 2902.21,1905.19 2902.21,1571.67 2902.21,1304.86 3075.24,1078.5 3315.18,998.648 3345.36,993.059 3356.44,1011.75 3356.44,1027.7 3356.44,1042.1 3355.88,1089.67 3355.62,1140.13 3187.62,1103.6 3152.17,1211.38 3152.17,1211.38 3124.7,1281.18 3085.12,1299.74 3085.12,1299.74 3030.33,1337.22 3089.25,1336.45 3089.25,1336.45 3149.89,1332.2 3181.82,1274.22 3181.82,1274.22 3235.68,1181.9 3323.09,1208.59 3357.55,1224.02 3362.97,1263.04 3378.62,1289.7 3395.89,1304.77 3261.76,1320.04 3120.76,1371.82 3120.76,1603.21 3120.76,1669.14 3144.35,1723.01 3182.98,1765.3 3176.71,1780.52 3156.04,1841.93 3188.83,1925.11 3188.83,1925.11 3239.54,1941.34 3354.94,1863.21 3403.11,1876.59 3454.77,1883.3 3506.09,1883.53 3557.41,1883.3 3609.11,1876.59 3657.37,1863.21 3772.63,1941.34 3823.27,1925.11 3823.27,1925.11 3856.14,1841.93 3835.46,1780.52 3829.19,1765.3 3867.91,1723.01 3891.34,1669.14 3891.34,1603.21 3891.34,1371.27 3750.07,1320.2 3615.6,1305.25 3637.26,1286.51 3656.56,1249.76 3656.56,1193.42 3656.56,1112.63 3655.86,1047.6 3655.86,1027.7 3655.86,1011.63 3666.73,992.801 3697.34,998.73 3937.15,1078.67 4109.96,1304.95 4109.96,1571.67 4109.96,1905.19 3839.59,2175.54 3506.09,2175.54"
         style="fill:#ffffff;fill-opacity:1;fill-rule:evenodd;stroke:none"
         id="path108" />
      <path
         d="M 3130.93,1308.51 C 3129.6,1305.5 3124.88,1304.61 3120.58,1306.67 3116.2,1308.64 3113.74,1312.73 3115.16,1315.74 3116.46,1318.83 3121.19,1319.68 3125.56,1317.63 3129.95,1315.65 3132.45,1311.52 3130.93,1308.51 V 1308.51"
         style="fill:#ffffff;fill-opacity:1;fill-rule:nonzero;stroke:none"
         id="path110" />
      <path
         d="M 3155.39,1281.23 C 3152.51,1278.56 3146.88,1279.8 3143.06,1284.02 3139.11,1288.23 3138.37,1293.86 3141.29,1296.57 3144.26,1299.24 3149.72,1297.99 3153.68,1293.78 3157.63,1289.52 3158.4,1283.93 3155.39,1281.23 V 1281.23"
         style="fill:#ffffff;fill-opacity:1;fill-rule:nonzero;stroke:none"
         id="path112" />
      <path
         d="M 3179.2,1246.45 C 3175.5,1243.88 3169.45,1246.29 3165.71,1251.66 3162.01,1257.03 3162.01,1263.47 3165.79,1266.05 3169.54,1268.63 3175.5,1266.31 3179.29,1260.98 3182.98,1255.53 3182.98,1249.08 3179.2,1246.45 V 1246.45"
         style="fill:#ffffff;fill-opacity:1;fill-rule:nonzero;stroke:none"
         id="path114" />
      <path
         d="M 3211.82,1212.85 C 3208.51,1209.2 3201.46,1210.18 3196.3,1215.16 3191.02,1220.03 3189.55,1226.94 3192.87,1230.59 3196.22,1234.25 3203.31,1233.22 3208.51,1228.28 3213.75,1223.42 3215.35,1216.46 3211.82,1212.85 V 1212.85"
         style="fill:#ffffff;fill-opacity:1;fill-rule:nonzero;stroke:none"
         id="path116" />
      <path
         d="M 3256.82,1193.34 C 3255.36,1188.61 3248.57,1186.46 3241.73,1188.47 3234.9,1190.54 3230.43,1196.08 3231.81,1200.86 3233.23,1205.62 3240.05,1207.86 3246.94,1205.71 3253.76,1203.65 3258.24,1198.15 3256.82,1193.34 V 1193.34"
         style="fill:#ffffff;fill-opacity:1;fill-rule:nonzero;stroke:none"
         id="path118" />
      <path
         d="M 3306.24,1189.72 C 3306.41,1184.74 3300.61,1180.61 3293.43,1180.53 3286.21,1180.36 3280.37,1184.39 3280.29,1189.29 3280.29,1194.32 3285.96,1198.41 3293.18,1198.53 3300.36,1198.67 3306.24,1194.67 3306.24,1189.72 V 1189.72"
         style="fill:#ffffff;fill-opacity:1;fill-rule:nonzero;stroke:none"
         id="path120" />
      <path
         d="M 3352.23,1197.55 C 3353.09,1192.69 3348.1,1187.7 3340.97,1186.38 3333.96,1185.09 3327.47,1188.09 3326.58,1192.91 3325.71,1197.89 3330.79,1202.88 3337.79,1204.17 3344.93,1205.41 3351.32,1202.49 3352.23,1197.55 V 1197.55"
         style="fill:#ffffff;fill-opacity:1;fill-rule:nonzero;stroke:none"
         id="path122" />
      <path
         d="M 2248.98,2234.88 V 2229.88"
         style="fill:none;stroke:#3a7fc3;stroke-width:10;stroke-linecap:round;stroke-linejoin:miter;stroke-miterlimit:10;stroke-dasharray:none;stroke-opacity:1"
         id="path124" />
      <path
         d="M 2248.98,2209.88 V 869.949"
         style="fill:none;stroke:#3a7fc3;stroke-width:10;stroke-linecap:round;stroke-linejoin:miter;stroke-miterlimit:10;stroke-dasharray:9.9995, 19.999;stroke-dashoffset:0;stroke-opacity:1"
         id="path126" />
      <path
         d="M 2248.98,859.949 V 854.949"
         style="fill:none;stroke:#3a7fc3;stroke-width:10;stroke-linecap:round;stroke-linejoin:miter;stroke-miterlimit:10;stroke-dasharray:none;stroke-opacity:1"
         id="path128" />
      <path
         d="M 1332.76,714.789 C 1328.95,717.559 1324.1,718.93 1318.18,718.93 1315.78,718.93 1313.42,718.691 1311.1,718.219 1308.77,717.73 1306.72,716.93 1304.92,715.82 1303.12,714.68 1301.68,713.191 1300.59,711.309 1299.52,709.43 1298.98,707.09 1298.98,704.289 1298.98,701.66 1299.75,699.512 1301.32,697.871 1302.87,696.23 1304.96,694.891 1307.56,693.852 1310.16,692.809 1313.09,691.949 1316.38,691.27 1319.66,690.59 1323,689.852 1326.4,689.059 1329.8,688.262 1333.13,687.309 1336.42,686.23 1339.7,685.148 1342.64,683.691 1345.24,681.852 1347.84,680.02 1349.92,677.691 1351.48,674.898 1353.04,672.09 1353.82,668.57 1353.82,664.332 1353.82,659.77 1352.8,655.879 1350.76,652.629 1348.71,649.391 1346.1,646.75 1342.9,644.711 1339.7,642.672 1336.12,641.191 1332.16,640.27 1328.2,639.352 1324.26,638.891 1320.34,638.891 1315.54,638.891 1311,639.488 1306.72,640.691 1302.44,641.891 1298.68,643.711 1295.44,646.148 1292.2,648.59 1289.64,651.719 1287.76,655.52 1285.88,659.309 1284.94,663.809 1284.94,669.012 H 1295.74 C 1295.74,665.41 1296.43,662.309 1297.84,659.711 1299.24,657.109 1301.08,654.98 1303.36,653.301 1305.64,651.621 1308.29,650.371 1311.34,649.57 1314.38,648.77 1317.49,648.379 1320.7,648.379 1323.26,648.379 1325.84,648.609 1328.44,649.102 1331.04,649.57 1333.38,650.391 1335.46,651.559 1337.54,652.711 1339.22,654.289 1340.5,656.289 1341.78,658.301 1342.42,660.859 1342.42,663.969 1342.42,666.93 1341.63,669.332 1340.08,671.172 1338.52,673 1336.43,674.512 1333.84,675.672 1331.23,676.832 1328.29,677.77 1325.02,678.488 1321.74,679.219 1318.4,679.961 1315,680.719 1311.6,681.469 1308.26,682.352 1304.98,683.359 1301.7,684.352 1298.75,685.672 1296.16,687.309 1293.56,688.949 1291.48,691.07 1289.92,693.672 1288.36,696.27 1287.58,699.531 1287.58,703.461 1287.58,707.77 1288.46,711.512 1290.22,714.672 1291.98,717.832 1294.32,720.43 1297.24,722.48 1300.16,724.512 1303.48,726.031 1307.2,727.031 1310.92,728.031 1314.74,728.531 1318.66,728.531 1323.06,728.531 1327.14,728 1330.9,726.969 1334.66,725.93 1337.96,724.289 1340.79,722.051 1343.64,719.809 1345.88,716.988 1347.52,713.59 1349.15,710.191 1350.06,706.129 1350.22,701.41 H 1339.42 C 1338.77,707.578 1336.56,712.031 1332.76,714.789"
         style="fill:#176fc1;fill-opacity:1;fill-rule:nonzero;stroke:none"
         id="path130" />
      <path
         d="M 1375.54,702.852 V 693.73 H 1375.78 C 1380.41,700.781 1387.09,704.289 1395.81,704.289 1399.66,704.289 1403.13,703.488 1406.25,701.891 1409.38,700.289 1411.58,697.578 1412.86,693.73 1414.94,697.09 1417.68,699.68 1421.08,701.531 1424.48,703.379 1428.22,704.289 1432.29,704.289 1435.41,704.289 1438.24,703.949 1440.76,703.281 1443.28,702.602 1445.43,701.531 1447.24,700.102 1449.04,698.648 1450.43,696.789 1451.43,694.512 1452.44,692.23 1452.93,689.488 1452.93,686.289 V 640.82 H 1442.74 V 681.492 C 1442.74,683.422 1442.57,685.211 1442.25,686.891 1441.94,688.57 1441.34,690.039 1440.46,691.27 1439.57,692.52 1438.35,693.488 1436.8,694.219 1435.24,694.941 1433.22,695.289 1430.74,695.289 1425.7,695.289 1421.74,693.852 1418.86,690.969 1415.98,688.09 1414.54,684.25 1414.54,679.449 V 640.82 H 1404.33 V 681.492 C 1404.33,683.488 1404.15,685.332 1403.8,687.012 1403.44,688.691 1402.82,690.148 1401.94,691.391 1401.05,692.629 1399.88,693.59 1398.4,694.281 1396.91,694.961 1395.01,695.289 1392.7,695.289 1389.74,695.289 1387.2,694.699 1385.08,693.488 1382.95,692.289 1381.23,690.859 1379.92,689.18 1378.6,687.5 1377.64,685.762 1377.04,683.949 1376.43,682.148 1376.14,680.648 1376.14,679.449 V 640.82 H 1365.94 V 702.852 H 1375.54"
         style="fill:#176fc1;fill-opacity:1;fill-rule:nonzero;stroke:none"
         id="path132" />
      <path
         d="M 1501.65,670.762 C 1499.57,670.309 1497.4,669.961 1495.12,669.672 1492.84,669.391 1490.53,669.082 1488.21,668.711 1485.89,668.359 1483.81,667.77 1481.98,666.969 1480.13,666.172 1478.63,665.039 1477.47,663.551 1476.31,662.07 1475.74,660.059 1475.74,657.5 1475.74,655.82 1476.07,654.391 1476.75,653.238 1477.43,652.07 1478.31,651.129 1479.39,650.41 1480.47,649.699 1481.75,649.18 1483.24,648.852 1484.72,648.531 1486.21,648.379 1487.73,648.379 1491.09,648.379 1493.97,648.828 1496.38,649.75 1498.77,650.672 1500.73,651.832 1502.25,653.238 1503.77,654.629 1504.9,656.148 1505.61,657.789 1506.33,659.43 1506.69,660.969 1506.69,662.422 V 672.852 C 1505.41,671.891 1503.73,671.191 1501.65,670.762 Z M 1515.94,639.488 C 1513.29,639.488 1511.2,640.23 1509.63,641.719 1508.08,643.191 1507.29,645.609 1507.29,648.969 1504.49,645.609 1501.23,643.191 1497.51,641.719 1493.79,640.23 1489.77,639.488 1485.45,639.488 1482.66,639.488 1480.01,639.789 1477.53,640.391 1475.05,640.988 1472.87,641.988 1471,643.398 1469.12,644.789 1467.64,646.59 1466.56,648.789 1465.47,650.988 1464.94,653.648 1464.94,656.781 1464.94,660.289 1465.54,663.172 1466.73,665.41 1467.93,667.648 1469.51,669.469 1471.47,670.879 1473.43,672.27 1475.67,673.34 1478.19,674.059 1480.71,674.77 1483.29,675.371 1485.94,675.859 1488.73,676.41 1491.4,676.832 1493.92,677.109 1496.43,677.391 1498.66,677.789 1500.58,678.32 1502.49,678.828 1504.01,679.59 1505.14,680.59 1506.25,681.602 1506.82,683.051 1506.82,684.98 1506.82,687.211 1506.4,689.012 1505.56,690.371 1504.72,691.738 1503.63,692.77 1502.31,693.488 1501,694.219 1499.51,694.699 1497.87,694.941 1496.23,695.172 1494.61,695.289 1493.02,695.289 1488.7,695.289 1485.1,694.469 1482.22,692.832 1479.33,691.191 1477.77,688.09 1477.53,683.531 H 1467.33 C 1467.49,687.371 1468.29,690.609 1469.74,693.262 1471.18,695.898 1473.09,698.031 1475.49,699.672 1477.89,701.309 1480.65,702.5 1483.77,703.219 1486.89,703.93 1490.17,704.289 1493.61,704.289 1496.42,704.289 1499.19,704.102 1501.95,703.691 1504.72,703.301 1507.22,702.48 1509.45,701.23 1511.69,700 1513.5,698.25 1514.85,696.012 1516.21,693.77 1516.89,690.859 1516.89,687.25 V 655.332 C 1516.89,652.93 1517.04,651.172 1517.31,650.059 1517.59,648.93 1518.54,648.379 1520.14,648.379 1521.02,648.379 1522.05,648.57 1523.26,648.969 V 641.051 C 1521.49,640.02 1519.06,639.488 1515.94,639.488"
         style="fill:#176fc1;fill-opacity:1;fill-rule:nonzero;stroke:none"
         id="path134" />
      <path
         d="M 1543.54,726.492 V 640.82 H 1533.33 V 726.492 H 1543.54"
         style="fill:#176fc1;fill-opacity:1;fill-rule:nonzero;stroke:none"
         id="path136" />
      <path
         d="M 1570.17,726.492 V 640.82 H 1559.97 V 726.492 H 1570.17"
         style="fill:#176fc1;fill-opacity:1;fill-rule:nonzero;stroke:none"
         id="path138" />
      <path
         d="M 1018.54,549.859 V 558.852 H 1028.98 V 568.09 C 1028.98,573.129 1030.44,576.949 1033.36,579.551 1036.28,582.148 1040.54,583.461 1046.14,583.461 1047.1,583.461 1048.2,583.379 1049.44,583.219 1050.68,583.051 1051.78,582.809 1052.74,582.5 V 573.609 C 1051.86,573.93 1050.9,574.16 1049.86,574.281 1048.82,574.391 1047.86,574.449 1046.98,574.449 1044.5,574.449 1042.58,573.969 1041.22,573.02 1039.86,572.051 1039.18,570.211 1039.18,567.5 V 558.852 H 1051.18 V 549.859 H 1039.18 V 496.809 H 1028.98 V 549.859 H 1018.54"
         style="fill:#176fc1;fill-opacity:1;fill-rule:nonzero;stroke:none"
         id="path140" />
      <path
         d="M 1069.24,517.75 C 1070.23,514.832 1071.62,512.398 1073.38,510.43 1075.14,508.469 1077.2,506.969 1079.55,505.93 1081.91,504.898 1084.42,504.371 1087.05,504.371 1089.7,504.371 1092.2,504.898 1094.55,505.93 1096.91,506.969 1098.97,508.469 1100.74,510.43 1102.49,512.398 1103.88,514.832 1104.88,517.75 1105.88,520.672 1106.38,524.012 1106.38,527.77 1106.38,531.539 1105.88,534.871 1104.88,537.789 1103.88,540.719 1102.49,543.172 1100.74,545.172 1098.97,547.172 1096.91,548.691 1094.55,549.73 1092.2,550.781 1089.7,551.301 1087.05,551.301 1084.42,551.301 1081.91,550.781 1079.55,549.73 1077.2,548.691 1075.14,547.172 1073.38,545.172 1071.62,543.172 1070.23,540.719 1069.24,537.789 1068.24,534.871 1067.74,531.539 1067.74,527.77 1067.74,524.012 1068.24,520.672 1069.24,517.75 Z M 1058.86,540.551 C 1060.14,544.512 1062.05,547.949 1064.62,550.879 1067.18,553.789 1070.34,556.09 1074.1,557.77 1077.86,559.449 1082.18,560.289 1087.05,560.289 1092.02,560.289 1096.36,559.449 1100.08,557.77 1103.8,556.09 1106.93,553.789 1109.5,550.879 1112.05,547.949 1113.97,544.512 1115.26,540.551 1116.54,536.602 1117.18,532.332 1117.18,527.77 1117.18,523.219 1116.54,518.969 1115.26,515.059 1113.97,511.129 1112.05,507.711 1109.5,504.789 1106.93,501.871 1103.8,499.59 1100.08,497.949 1096.36,496.32 1092.02,495.5 1087.05,495.5 1082.18,495.5 1077.86,496.32 1074.1,497.949 1070.34,499.59 1067.18,501.871 1064.62,504.789 1062.05,507.711 1060.14,511.129 1058.86,515.059 1057.58,518.969 1056.94,523.219 1056.94,527.77 1056.94,532.332 1057.58,536.602 1058.86,540.551"
         style="fill:#176fc1;fill-opacity:1;fill-rule:nonzero;stroke:none"
         id="path142" />
      <path
         d="M 1138.42,558.852 V 545.781 H 1138.66 C 1141.14,550.82 1144.18,554.531 1147.78,556.93 1151.38,559.332 1155.94,560.449 1161.46,560.289 V 549.488 C 1157.38,549.488 1153.9,548.93 1151.02,547.809 1148.14,546.699 1145.81,545.059 1144.06,542.891 1142.3,540.738 1141.01,538.109 1140.22,535.039 1139.42,531.949 1139.02,528.422 1139.02,524.41 V 496.809 H 1128.82 V 558.852 H 1138.42"
         style="fill:#176fc1;fill-opacity:1;fill-rule:nonzero;stroke:none"
         id="path144" />
      <path
         d="M 1227.33,496.809 V 557.77 H 1205.25 V 565.93 C 1208.13,565.93 1210.93,566.148 1213.65,566.602 1216.37,567.031 1218.83,567.852 1221.03,569.059 1223.23,570.25 1225.09,571.891 1226.62,573.969 1228.13,576.051 1229.17,578.691 1229.74,581.891 H 1237.53 V 496.809 H 1227.33"
         style="fill:#176fc1;fill-opacity:1;fill-rule:nonzero;stroke:none"
         id="path146" />
      <path
         d="M 1288.29,541.031 C 1286.14,540.039 1284.3,538.672 1282.78,536.949 1281.26,535.23 1280.12,533.191 1279.36,530.84 1278.6,528.469 1278.22,525.969 1278.22,523.34 1278.22,520.699 1278.62,518.219 1279.42,515.898 1280.21,513.57 1281.36,511.582 1282.84,509.898 1284.32,508.219 1286.16,506.871 1288.36,505.879 1290.56,504.871 1293.06,504.371 1295.86,504.371 1298.66,504.371 1301.12,504.871 1303.24,505.879 1305.36,506.871 1307.14,508.262 1308.58,510.02 1310.02,511.781 1311.12,513.801 1311.88,516.07 1312.64,518.359 1313.02,520.738 1313.02,523.219 1313.02,525.859 1312.68,528.359 1312,530.719 1311.32,533.07 1310.26,535.109 1308.82,536.832 1307.38,538.551 1305.58,539.941 1303.42,540.969 1301.26,542.012 1298.74,542.539 1295.86,542.539 1292.98,542.539 1290.46,542.031 1288.29,541.031 Z M 1306.78,569.41 C 1304.3,571.738 1301.02,572.891 1296.94,572.891 1292.62,572.891 1289.13,571.832 1286.5,569.711 1283.86,567.602 1281.8,564.922 1280.32,561.68 1278.84,558.43 1277.82,554.941 1277.25,551.172 1276.7,547.422 1276.38,543.891 1276.3,540.609 L 1276.54,540.371 C 1278.94,544.289 1281.92,547.129 1285.48,548.891 1289.04,550.648 1293.14,551.539 1297.78,551.539 1301.86,551.539 1305.52,550.84 1308.76,549.43 1312,548.031 1314.72,546.09 1316.92,543.609 1319.12,541.129 1320.82,538.219 1322.02,534.859 1323.22,531.492 1323.82,527.852 1323.82,523.93 1323.82,520.82 1323.34,517.578 1322.38,514.219 1321.42,510.859 1319.84,507.789 1317.64,505.039 1315.43,502.27 1312.52,500 1308.88,498.199 1305.24,496.391 1300.74,495.5 1295.37,495.5 1289.06,495.5 1283.98,496.781 1280.14,499.332 1276.3,501.891 1273.34,505.172 1271.26,509.18 1269.17,513.172 1267.8,517.578 1267.12,522.379 1266.43,527.172 1266.1,531.809 1266.1,536.301 1266.1,542.129 1266.6,547.789 1267.6,553.281 1268.6,558.75 1270.3,563.609 1272.7,567.852 1275.1,572.09 1278.29,575.488 1282.3,578.051 1286.3,580.609 1291.34,581.891 1297.42,581.891 1304.46,581.891 1310.06,580.039 1314.22,576.32 1318.38,572.602 1320.78,567.211 1321.42,560.172 H 1311.21 C 1310.74,564.02 1309.26,567.09 1306.78,569.41"
         style="fill:#176fc1;fill-opacity:1;fill-rule:nonzero;stroke:none"
         id="path148" />
      <path
         d="M 1383.16,536.832 C 1382.4,539.59 1381.23,542.051 1379.68,544.219 1378.11,546.379 1376.12,548.09 1373.68,549.371 1371.23,550.648 1368.37,551.301 1365.1,551.301 1361.65,551.301 1358.73,550.609 1356.34,549.25 1353.93,547.891 1351.98,546.109 1350.46,543.91 1348.93,541.719 1347.84,539.219 1347.16,536.41 1346.47,533.609 1346.14,530.781 1346.14,527.891 1346.14,524.852 1346.5,521.91 1347.22,519.082 1347.93,516.23 1349.08,513.73 1350.63,511.582 1352.2,509.41 1354.21,507.672 1356.7,506.352 1359.17,505.039 1362.18,504.371 1365.7,504.371 1369.21,504.371 1372.16,505.059 1374.52,506.41 1376.88,507.77 1378.77,509.57 1380.21,511.809 1381.65,514.051 1382.7,516.621 1383.33,519.488 1383.97,522.379 1384.3,525.332 1384.3,528.379 1384.3,531.25 1383.92,534.082 1383.16,536.832 Z M 1346.5,558.852 V 550.449 H 1346.74 C 1348.42,553.891 1351.05,556.391 1354.66,557.949 1358.26,559.512 1362.22,560.289 1366.54,560.289 1371.34,560.289 1375.52,559.41 1379.08,557.648 1382.64,555.898 1385.59,553.512 1387.96,550.52 1390.32,547.52 1392.09,544.051 1393.29,540.129 1394.5,536.211 1395.1,532.051 1395.1,527.648 1395.1,523.262 1394.52,519.102 1393.35,515.172 1392.2,511.25 1390.43,507.832 1388.08,504.922 1385.72,501.988 1382.75,499.699 1379.2,498.02 1375.63,496.34 1371.49,495.5 1366.78,495.5 1365.25,495.5 1363.55,495.66 1361.67,495.969 1359.79,496.301 1357.93,496.809 1356.1,497.539 1354.26,498.262 1352.51,499.238 1350.88,500.48 1349.24,501.719 1347.86,503.262 1346.74,505.102 H 1346.5 V 473.18 H 1336.3 V 558.852 H 1346.5"
         style="fill:#176fc1;fill-opacity:1;fill-rule:nonzero;stroke:none"
         id="path150" />
      <path
         d="M 1402.17,558.852 H 1415.25 L 1430.13,537.141 1445.61,558.852 H 1457.86 L 1436.49,530.289 1460.49,496.809 H 1447.41 L 1430.13,522.5 1412.86,496.809 H 1400.49 L 1423.77,529.449 1402.17,558.852"
         style="fill:#176fc1;fill-opacity:1;fill-rule:nonzero;stroke:none"
         id="path152" />
      <path
         d="M 1502.25,534.98 V 525.371 H 1467.57 V 534.98 H 1502.25"
         style="fill:#176fc1;fill-opacity:1;fill-rule:nonzero;stroke:none"
         id="path154" />
      <path
         d="M 1540.77,496.809 V 557.77 H 1518.69 V 565.93 C 1521.57,565.93 1524.37,566.148 1527.09,566.602 1529.81,567.031 1532.27,567.852 1534.47,569.059 1536.67,570.25 1538.53,571.891 1540.05,573.969 1541.57,576.051 1542.61,578.691 1543.17,581.891 H 1550.97 V 496.809 H 1540.77"
         style="fill:#176fc1;fill-opacity:1;fill-rule:nonzero;stroke:none"
         id="path156" />
      <path
         d="M 1581.57,563.77 C 1582.69,567.461 1584.43,570.629 1586.79,573.32 1589.15,575.988 1592.09,578.09 1595.61,579.609 1599.13,581.129 1603.13,581.891 1607.61,581.891 1611.29,581.891 1614.75,581.352 1617.99,580.27 1621.23,579.199 1624.05,577.629 1626.45,575.59 1628.85,573.551 1630.75,571.012 1632.15,567.98 1633.55,564.941 1634.25,561.41 1634.25,557.422 1634.25,553.648 1633.67,550.332 1632.51,547.461 1631.35,544.57 1629.81,541.988 1627.89,539.711 1625.97,537.441 1623.77,535.371 1621.29,533.531 1618.81,531.699 1616.25,529.941 1613.61,528.262 1610.97,526.66 1608.33,525.078 1605.69,523.512 1603.05,521.949 1600.63,520.289 1598.43,518.531 1596.23,516.781 1594.35,514.879 1592.79,512.832 1591.23,510.801 1590.21,508.461 1589.73,505.82 H 1633.41 V 496.809 H 1577.85 C 1578.25,501.852 1579.15,506.148 1580.55,509.711 1581.95,513.281 1583.73,516.379 1585.89,519.02 1588.05,521.66 1590.49,523.969 1593.21,525.969 1595.93,527.969 1598.77,529.852 1601.73,531.621 1605.33,533.852 1608.49,535.922 1611.21,537.789 1613.93,539.672 1616.19,541.582 1617.99,543.488 1619.79,545.41 1621.15,547.5 1622.07,549.73 1622.99,551.969 1623.45,554.57 1623.45,557.539 1623.45,559.852 1623.01,561.949 1622.13,563.84 1621.25,565.711 1620.07,567.332 1618.59,568.691 1617.11,570.059 1615.37,571.09 1613.37,571.809 1611.37,572.539 1609.25,572.891 1607.01,572.891 1604.05,572.891 1601.51,572.27 1599.39,571.031 1597.27,569.789 1595.53,568.172 1594.17,566.172 1592.81,564.18 1591.83,561.91 1591.23,559.391 1590.63,556.871 1590.37,554.332 1590.45,551.781 H 1580.25 C 1580.01,556.09 1580.45,560.102 1581.57,563.77"
         style="fill:#176fc1;fill-opacity:1;fill-rule:nonzero;stroke:none"
         id="path158" />
      <path
         d="M 1657.83,527.949 C 1658.03,523.992 1658.68,520.27 1659.75,516.789 1660.83,513.32 1662.57,510.371 1664.97,507.98 1667.37,505.57 1670.73,504.371 1675.05,504.371 1679.38,504.371 1682.73,505.57 1685.14,507.98 1687.53,510.371 1689.27,513.32 1690.36,516.789 1691.43,520.27 1692.07,523.992 1692.27,527.949 1692.47,531.91 1692.57,535.5 1692.57,538.691 1692.57,540.781 1692.55,543.07 1692.51,545.59 1692.47,548.109 1692.27,550.629 1691.91,553.148 1691.55,555.68 1691.04,558.129 1690.36,560.531 1689.67,562.93 1688.68,565.039 1687.35,566.832 1686.04,568.629 1684.38,570.102 1682.37,571.211 1680.37,572.332 1677.93,572.891 1675.05,572.891 1672.17,572.891 1669.73,572.332 1667.73,571.211 1665.73,570.102 1664.07,568.629 1662.75,566.832 1661.43,565.039 1660.43,562.93 1659.75,560.531 1659.07,558.129 1658.55,555.68 1658.19,553.148 1657.83,550.629 1657.63,548.109 1657.59,545.59 1657.55,543.07 1657.53,540.781 1657.53,538.691 1657.53,535.5 1657.63,531.91 1657.83,527.949 Z M 1646.97,548.301 C 1647.13,551.66 1647.53,554.941 1648.17,558.129 1648.81,561.328 1649.74,564.371 1650.93,567.25 1652.13,570.129 1653.77,572.648 1655.85,574.809 1657.93,576.969 1660.55,578.691 1663.71,579.98 1666.88,581.25 1670.65,581.891 1675.05,581.891 1679.45,581.891 1683.23,581.25 1686.4,579.98 1689.55,578.691 1692.17,576.969 1694.25,574.809 1696.33,572.648 1697.97,570.129 1699.17,567.25 1700.37,564.371 1701.29,561.328 1701.93,558.129 1702.57,554.941 1702.97,551.66 1703.13,548.301 1703.29,544.941 1703.37,541.699 1703.37,538.57 1703.37,535.449 1703.29,532.211 1703.13,528.852 1702.97,525.5 1702.57,522.211 1701.93,519.02 1701.29,515.82 1700.37,512.789 1699.17,509.961 1697.97,507.109 1696.33,504.609 1694.25,502.461 1692.17,500.289 1689.57,498.59 1686.45,497.359 1683.33,496.109 1679.54,495.5 1675.05,495.5 1670.65,495.5 1666.88,496.109 1663.71,497.359 1660.55,498.59 1657.93,500.289 1655.85,502.461 1653.77,504.609 1652.13,507.109 1650.93,509.961 1649.74,512.789 1648.81,515.82 1648.17,519.02 1647.53,522.211 1647.13,525.5 1646.97,528.852 1646.81,532.211 1646.73,535.449 1646.73,538.57 1646.73,541.699 1646.81,544.941 1646.97,548.301"
         style="fill:#176fc1;fill-opacity:1;fill-rule:nonzero;stroke:none"
         id="path160" />
      <path
         d="M 1763.31,536.832 C 1762.55,539.59 1761.39,542.051 1759.83,544.219 1758.27,546.379 1756.27,548.09 1753.83,549.371 1751.39,550.648 1748.53,551.301 1745.25,551.301 1741.81,551.301 1738.89,550.609 1736.49,549.25 1734.09,547.891 1732.13,546.109 1730.61,543.91 1729.09,541.719 1727.99,539.219 1727.31,536.41 1726.63,533.609 1726.29,530.781 1726.29,527.891 1726.29,524.852 1726.65,521.91 1727.37,519.082 1728.09,516.23 1729.23,513.73 1730.79,511.582 1732.35,509.41 1734.37,507.672 1736.86,506.352 1739.33,505.039 1742.33,504.371 1745.85,504.371 1749.37,504.371 1752.31,505.059 1754.67,506.41 1757.03,507.77 1758.93,509.57 1760.37,511.809 1761.81,514.051 1762.85,516.621 1763.49,519.488 1764.13,522.379 1764.45,525.332 1764.45,528.379 1764.45,531.25 1764.07,534.082 1763.31,536.832 Z M 1726.65,558.852 V 550.449 H 1726.89 C 1728.57,553.891 1731.21,556.391 1734.81,557.949 1738.41,559.512 1742.37,560.289 1746.69,560.289 1751.49,560.289 1755.67,559.41 1759.23,557.648 1762.79,555.898 1765.75,553.512 1768.11,550.52 1770.47,547.52 1772.25,544.051 1773.45,540.129 1774.65,536.211 1775.25,532.051 1775.25,527.648 1775.25,523.262 1774.67,519.102 1773.51,515.172 1772.35,511.25 1770.59,507.832 1768.23,504.922 1765.87,501.988 1762.91,499.699 1759.36,498.02 1755.79,496.34 1751.65,495.5 1746.93,495.5 1745.41,495.5 1743.71,495.66 1741.83,495.969 1739.95,496.301 1738.09,496.809 1736.25,497.539 1734.41,498.262 1732.67,499.238 1731.04,500.48 1729.39,501.719 1728.01,503.262 1726.89,505.102 H 1726.65 V 473.18 H 1716.45 V 558.852 H 1726.65"
         style="fill:#176fc1;fill-opacity:1;fill-rule:nonzero;stroke:none"
         id="path162" />
      <path
         d="M 1782.33,558.852 H 1795.41 L 1810.29,537.141 1825.77,558.852 H 1838.01 L 1816.65,530.289 1840.65,496.809 H 1827.57 L 1810.29,522.5 1793.01,496.809 H 1780.65 L 1803.93,529.449 1782.33,558.852"
         style="fill:#176fc1;fill-opacity:1;fill-rule:nonzero;stroke:none"
         id="path164" />
      <path
         d="M 3356.33,726.5 V 650.43 H 3401.69 V 640.82 H 3344.94 V 726.5 H 3356.33"
         style="fill:#176fc1;fill-opacity:1;fill-rule:nonzero;stroke:none"
         id="path166" />
      <path
         d="M 3443.33,670.762 C 3441.24,670.32 3439.08,669.961 3436.79,669.68 3434.51,669.398 3432.2,669.082 3429.89,668.73 3427.57,668.359 3425.48,667.781 3423.65,666.988 3421.81,666.191 3420.31,665.039 3419.15,663.559 3417.98,662.09 3417.42,660.059 3417.42,657.5 3417.42,655.82 3417.75,654.398 3418.43,653.238 3419.11,652.09 3419.99,651.148 3421.07,650.43 3422.14,649.711 3423.43,649.18 3424.92,648.859 3426.39,648.539 3427.88,648.379 3429.41,648.379 3432.77,648.379 3435.65,648.852 3438.05,649.762 3440.44,650.68 3442.41,651.84 3443.93,653.238 3445.44,654.648 3446.58,656.172 3447.29,657.809 3448,659.441 3448.37,660.98 3448.37,662.422 V 672.871 C 3447.08,671.898 3445.4,671.211 3443.33,670.762 Z M 3457.61,639.512 C 3454.97,639.512 3452.87,640.242 3451.3,641.719 3449.75,643.199 3448.97,645.621 3448.97,648.98 3446.17,645.621 3442.9,643.199 3439.19,641.719 3435.46,640.242 3431.45,639.512 3427.12,639.512 3424.33,639.512 3421.69,639.801 3419.21,640.41 3416.73,641 3414.54,642.012 3412.67,643.398 3410.79,644.801 3409.31,646.602 3408.24,648.809 3407.14,651 3406.62,653.672 3406.62,656.781 3406.62,660.301 3407.21,663.18 3408.41,665.43 3409.6,667.66 3411.19,669.48 3413.15,670.879 3415.11,672.281 3417.35,673.34 3419.87,674.059 3422.39,674.781 3424.97,675.391 3427.61,675.859 3430.4,676.422 3433.07,676.84 3435.59,677.129 3438.11,677.398 3440.33,677.801 3442.25,678.32 3444.17,678.852 3445.69,679.609 3446.81,680.602 3447.92,681.602 3448.49,683.059 3448.49,684.98 3448.49,687.219 3448.07,689.02 3447.23,690.391 3446.39,691.738 3445.31,692.781 3443.99,693.5 3442.67,694.219 3441.19,694.711 3439.54,694.941 3437.9,695.18 3436.28,695.309 3434.69,695.309 3430.37,695.309 3426.77,694.48 3423.89,692.852 3421.01,691.211 3419.45,688.102 3419.21,683.539 H 3409.01 C 3409.17,687.379 3409.97,690.621 3411.41,693.262 3412.85,695.898 3414.77,698.039 3417.16,699.68 3419.56,701.328 3422.33,702.5 3425.44,703.219 3428.57,703.941 3431.85,704.301 3435.29,704.301 3438.09,704.301 3440.87,704.102 3443.63,703.711 3446.39,703.301 3448.89,702.48 3451.13,701.25 3453.37,700 3455.17,698.262 3456.53,696.02 3457.88,693.789 3458.57,690.859 3458.57,687.262 V 655.352 C 3458.57,652.949 3458.71,651.191 3458.99,650.059 3459.27,648.941 3460.21,648.379 3461.81,648.379 3462.69,648.379 3463.72,648.582 3464.94,648.98 V 641.059 C 3463.17,640.02 3460.74,639.512 3457.61,639.512"
         style="fill:#176fc1;fill-opacity:1;fill-rule:nonzero;stroke:none"
         id="path168" />
      <path
         d="M 3483.65,702.871 V 689.781 H 3483.88 C 3486.36,694.82 3489.41,698.539 3493,700.949 3496.61,703.34 3501.17,704.461 3506.69,704.301 V 693.5 C 3502.61,693.5 3499.13,692.949 3496.24,691.82 3493.37,690.699 3491.05,689.059 3489.29,686.898 3487.53,684.738 3486.24,682.129 3485.44,679.039 3484.64,675.961 3484.25,672.422 3484.25,668.422 V 640.82 H 3474.05 V 702.871 H 3483.65"
         style="fill:#176fc1;fill-opacity:1;fill-rule:nonzero;stroke:none"
         id="path170" />
      <path
         d="M 3544.54,651.211 C 3546.91,652.602 3548.8,654.441 3550.25,656.719 3551.69,659 3552.75,661.582 3553.43,664.461 3554.11,667.34 3554.45,670.219 3554.45,673.102 3554.45,675.82 3554.13,678.5 3553.49,681.148 3552.85,683.789 3551.83,686.172 3550.42,688.281 3549.03,690.41 3547.2,692.109 3544.97,693.379 3542.73,694.672 3540.01,695.309 3536.81,695.309 3533.53,695.309 3530.73,694.68 3528.41,693.449 3526.09,692.211 3524.19,690.539 3522.71,688.461 3521.22,686.379 3520.15,683.98 3519.47,681.27 3518.78,678.539 3518.45,675.699 3518.45,672.742 3518.45,669.941 3518.72,667.148 3519.29,664.34 3519.85,661.539 3520.81,659 3522.16,656.719 3523.53,654.441 3525.33,652.602 3527.57,651.211 3529.81,649.801 3532.61,649.102 3535.97,649.102 3539.33,649.102 3542.18,649.801 3544.54,651.211 Z M 3557.57,623.301 C 3552.92,618.262 3545.65,615.738 3535.74,615.738 3532.85,615.738 3529.92,616.059 3526.91,616.699 3523.91,617.34 3521.19,618.379 3518.74,619.82 3516.3,621.27 3514.29,623.141 3512.69,625.469 3511.09,627.789 3510.21,630.621 3510.05,633.98 H 3520.25 C 3520.33,632.148 3520.91,630.582 3521.99,629.301 3523.07,628.031 3524.39,626.988 3525.95,626.191 3527.51,625.391 3529.21,624.801 3531.05,624.441 3532.88,624.082 3534.64,623.898 3536.32,623.898 3539.69,623.898 3542.53,624.488 3544.85,625.641 3547.16,626.801 3549.1,628.398 3550.61,630.449 3552.12,632.48 3553.23,634.941 3553.91,637.832 3554.58,640.699 3554.94,643.859 3554.94,647.301 V 651.379 H 3554.69 C 3552.92,647.539 3550.27,644.719 3546.71,642.93 3543.15,641.121 3539.37,640.219 3535.37,640.219 3530.73,640.219 3526.69,641.059 3523.26,642.742 3519.81,644.422 3516.93,646.68 3514.6,649.531 3512.29,652.359 3510.54,655.68 3509.39,659.488 3508.23,663.281 3507.65,667.301 3507.65,671.539 3507.65,675.219 3508.13,679 3509.1,682.891 3510.05,686.75 3511.65,690.281 3513.89,693.449 3516.13,696.602 3519.1,699.199 3522.77,701.25 3526.45,703.281 3530.97,704.301 3536.32,704.301 3540.25,704.301 3543.84,703.43 3547.12,701.719 3550.4,700 3552.96,697.422 3554.81,693.98 H 3554.94 V 702.871 H 3564.53 V 646.102 C 3564.53,635.949 3562.2,628.34 3557.57,623.301"
         style="fill:#176fc1;fill-opacity:1;fill-rule:nonzero;stroke:none"
         id="path172" />
      <path
         d="M 3621.34,684.629 C 3620.42,686.781 3619.19,688.648 3617.63,690.199 3616.07,691.77 3614.22,693 3612.1,693.922 3609.98,694.84 3607.65,695.309 3605.09,695.309 3602.45,695.309 3600.06,694.84 3597.94,693.922 3595.82,693 3594,691.738 3592.48,690.141 3590.97,688.539 3589.76,686.68 3588.88,684.57 3588,682.441 3587.48,680.18 3587.33,677.781 H 3622.96 C 3622.81,680.18 3622.26,682.461 3621.34,684.629 Z M 3623.8,644.781 C 3619.17,641.27 3613.32,639.512 3606.28,639.512 3601.32,639.512 3597.03,640.309 3593.39,641.898 3589.74,643.5 3586.68,645.738 3584.21,648.621 3581.73,651.5 3579.87,654.941 3578.63,658.941 3577.39,662.949 3576.68,667.301 3576.53,672.031 3576.53,676.738 3577.24,681.059 3578.69,684.98 3580.13,688.898 3582.14,692.301 3584.74,695.18 3587.34,698.059 3590.42,700.301 3593.99,701.898 3597.54,703.5 3601.44,704.301 3605.69,704.301 3611.21,704.301 3615.79,703.16 3619.43,700.879 3623.06,698.602 3625.99,695.699 3628.19,692.18 3630.38,688.66 3631.91,684.82 3632.75,680.66 3633.59,676.5 3633.92,672.539 3633.76,668.789 H 3587.33 C 3587.24,666.059 3587.57,663.48 3588.29,661.039 3589.01,658.602 3590.17,656.441 3591.77,654.57 3593.36,652.68 3595.4,651.191 3597.88,650.059 3600.37,648.941 3603.29,648.379 3606.64,648.379 3610.97,648.379 3614.51,649.379 3617.26,651.379 3620.03,653.379 3621.85,656.422 3622.73,660.5 H 3632.81 C 3631.44,653.539 3628.45,648.301 3623.8,644.781"
         style="fill:#176fc1;fill-opacity:1;fill-rule:nonzero;stroke:none"
         id="path174" />
      <path
         d="M 3653.57,702.871 V 689.781 H 3653.8 C 3656.28,694.82 3659.33,698.539 3662.92,700.949 3666.52,703.34 3671.09,704.461 3676.61,704.301 V 693.5 C 3672.52,693.5 3669.05,692.949 3666.17,691.82 3663.29,690.699 3660.96,689.059 3659.2,686.898 3657.45,684.738 3656.17,682.129 3655.37,679.039 3654.56,675.961 3654.17,672.422 3654.17,668.422 V 640.82 H 3643.96 V 702.871 H 3653.57"
         style="fill:#176fc1;fill-opacity:1;fill-rule:nonzero;stroke:none"
         id="path176" />
      <path
         d="M 3182.57,549.859 V 558.859 H 3193.01 V 568.102 C 3193.01,573.141 3194.47,576.969 3197.4,579.57 3200.31,582.172 3204.56,583.461 3210.17,583.461 3211.13,583.461 3212.23,583.379 3213.47,583.219 3214.71,583.059 3215.81,582.832 3216.77,582.5 V 573.629 C 3215.89,573.941 3214.94,574.16 3213.89,574.281 3212.85,574.398 3211.89,574.469 3211.01,574.469 3208.53,574.469 3206.62,573.98 3205.25,573.031 3203.89,572.07 3203.22,570.219 3203.22,567.5 V 558.859 H 3215.21 V 549.859 H 3203.22 V 496.82 H 3193.01 V 549.859 H 3182.57"
         style="fill:#176fc1;fill-opacity:1;fill-rule:nonzero;stroke:none"
         id="path178" />
      <path
         d="M 3233.28,517.77 C 3234.27,514.84 3235.65,512.398 3237.42,510.449 3239.17,508.48 3241.22,506.988 3243.59,505.949 3245.95,504.898 3248.45,504.379 3251.09,504.379 3253.72,504.379 3256.22,504.898 3258.59,505.949 3260.95,506.988 3263,508.48 3264.77,510.449 3266.53,512.398 3267.9,514.84 3268.91,517.77 3269.92,520.68 3270.4,524.02 3270.4,527.789 3270.4,531.539 3269.92,534.879 3268.91,537.809 3267.9,540.719 3266.53,543.18 3264.77,545.18 3263,547.18 3260.95,548.711 3258.59,549.738 3256.22,550.781 3253.72,551.309 3251.09,551.309 3248.45,551.309 3245.95,550.781 3243.59,549.738 3241.22,548.711 3239.17,547.18 3237.42,545.18 3235.65,543.18 3234.27,540.719 3233.28,537.809 3232.27,534.879 3231.77,531.539 3231.77,527.789 3231.77,524.02 3232.27,520.68 3233.28,517.77 Z M 3222.88,540.559 C 3224.17,544.531 3226.09,547.969 3228.65,550.879 3231.21,553.809 3234.37,556.109 3238.13,557.789 3241.89,559.469 3246.21,560.309 3251.09,560.309 3256.05,560.309 3260.38,559.469 3264.12,557.789 3267.83,556.109 3270.97,553.809 3273.53,550.879 3276.09,547.969 3278,544.531 3279.29,540.559 3280.57,536.602 3281.21,532.34 3281.21,527.789 3281.21,523.219 3280.57,518.98 3279.29,515.07 3278,511.148 3276.09,507.719 3273.53,504.801 3270.97,501.879 3267.83,499.609 3264.12,497.969 3260.38,496.328 3256.05,495.5 3251.09,495.5 3246.21,495.5 3241.89,496.328 3238.13,497.969 3234.37,499.609 3231.21,501.879 3228.65,504.801 3226.09,507.719 3224.17,511.148 3222.88,515.07 3221.62,518.98 3220.97,523.219 3220.97,527.789 3220.97,532.34 3221.62,536.602 3222.88,540.559"
         style="fill:#176fc1;fill-opacity:1;fill-rule:nonzero;stroke:none"
         id="path180" />
      <path
         d="M 3302.46,558.859 V 545.781 H 3302.69 C 3305.17,550.82 3308.22,554.551 3311.81,556.949 3315.4,559.34 3319.97,560.469 3325.49,560.309 V 549.512 C 3321.41,549.512 3317.93,548.941 3315.05,547.832 3312.17,546.699 3309.85,545.07 3308.09,542.91 3306.33,540.738 3305.05,538.121 3304.25,535.039 3303.45,531.969 3303.05,528.422 3303.05,524.422 V 496.82 H 3292.85 V 558.859 H 3302.46"
         style="fill:#176fc1;fill-opacity:1;fill-rule:nonzero;stroke:none"
         id="path182" />
      <path
         d="M 3391.36,496.82 V 557.789 H 3369.29 V 565.949 C 3372.16,565.949 3374.96,566.172 3377.69,566.602 3380.4,567.051 3382.87,567.871 3385.07,569.059 3387.26,570.27 3389.12,571.898 3390.65,573.98 3392.16,576.059 3393.21,578.711 3393.76,581.898 H 3401.57 V 496.82 H 3391.36"
         style="fill:#176fc1;fill-opacity:1;fill-rule:nonzero;stroke:none"
         id="path184" />
      <path
         d="M 3432.17,563.789 C 3433.29,567.461 3435.03,570.641 3437.4,573.32 3439.75,576 3442.69,578.102 3446.21,579.629 3449.73,581.141 3453.72,581.898 3458.22,581.898 3461.89,581.898 3465.35,581.359 3468.59,580.289 3471.83,579.199 3474.65,577.641 3477.04,575.602 3479.45,573.559 3481.35,571.02 3482.75,567.988 3484.15,564.941 3484.86,561.422 3484.86,557.422 3484.86,553.672 3484.27,550.352 3483.11,547.461 3481.95,544.59 3480.4,542.012 3478.49,539.719 3476.58,537.441 3474.37,535.391 3471.89,533.539 3469.41,531.699 3466.85,529.941 3464.21,528.262 3461.58,526.66 3458.93,525.09 3456.28,523.52 3453.65,521.969 3451.22,520.301 3449.04,518.539 3446.83,516.781 3444.96,514.879 3443.39,512.852 3441.83,510.801 3440.81,508.461 3440.33,505.82 H 3484.02 V 496.82 H 3428.45 C 3428.85,501.859 3429.75,506.172 3431.15,509.719 3432.55,513.281 3434.33,516.379 3436.49,519.02 3438.65,521.66 3441.09,523.98 3443.81,525.98 3446.53,527.988 3449.37,529.859 3452.33,531.621 3455.93,533.859 3459.1,535.922 3461.81,537.809 3464.53,539.68 3466.79,541.582 3468.59,543.5 3470.38,545.43 3471.75,547.5 3472.67,549.738 3473.59,551.988 3474.06,554.59 3474.06,557.539 3474.06,559.859 3473.61,561.969 3472.73,563.852 3471.85,565.719 3470.67,567.34 3469.19,568.711 3467.71,570.059 3465.97,571.109 3463.97,571.82 3461.97,572.539 3459.85,572.91 3457.61,572.91 3454.64,572.91 3452.1,572.281 3449.99,571.039 3447.87,569.801 3446.13,568.18 3444.77,566.191 3443.41,564.18 3442.44,561.922 3441.83,559.398 3441.22,556.879 3440.97,554.34 3441.05,551.781 H 3430.85 C 3430.61,556.109 3431.05,560.102 3432.17,563.789"
         style="fill:#176fc1;fill-opacity:1;fill-rule:nonzero;stroke:none"
         id="path186" />
      <path
         d="M 3508.43,527.969 C 3508.63,524 3509.27,520.289 3510.35,516.801 3511.43,513.32 3513.17,510.391 3515.57,507.988 3517.96,505.582 3521.32,504.379 3525.65,504.379 3529.97,504.379 3533.33,505.582 3535.74,507.988 3538.13,510.391 3539.87,513.32 3540.95,516.801 3542.03,520.289 3542.67,524 3542.87,527.969 3543.06,531.922 3543.17,535.5 3543.17,538.711 3543.17,540.781 3543.15,543.082 3543.11,545.602 3543.06,548.121 3542.87,550.641 3542.51,553.16 3542.14,555.68 3541.63,558.141 3540.95,560.539 3540.27,562.949 3539.27,565.039 3537.94,566.84 3536.63,568.648 3534.97,570.102 3532.96,571.23 3530.97,572.34 3528.53,572.91 3525.65,572.91 3522.77,572.91 3520.33,572.34 3518.33,571.23 3516.32,570.102 3514.66,568.648 3513.35,566.84 3512.03,565.039 3511.03,562.949 3510.35,560.539 3509.66,558.141 3509.15,555.68 3508.78,553.16 3508.43,550.641 3508.23,548.121 3508.19,545.602 3508.15,543.082 3508.13,540.781 3508.13,538.711 3508.13,535.5 3508.23,531.922 3508.43,527.969 Z M 3497.57,548.301 C 3497.73,551.66 3498.13,554.941 3498.76,558.141 3499.41,561.352 3500.33,564.379 3501.53,567.262 3502.73,570.141 3504.37,572.66 3506.45,574.82 3508.53,576.988 3511.15,578.711 3514.31,579.98 3517.47,581.27 3521.24,581.898 3525.65,581.898 3530.05,581.898 3533.82,581.27 3536.99,579.98 3540.15,578.711 3542.77,576.988 3544.85,574.82 3546.93,572.66 3548.57,570.141 3549.77,567.262 3550.97,564.379 3551.89,561.352 3552.53,558.141 3553.17,554.941 3553.57,551.66 3553.72,548.301 3553.89,544.941 3553.97,541.699 3553.97,538.582 3553.97,535.469 3553.89,532.219 3553.72,528.859 3553.57,525.5 3553.17,522.219 3552.53,519.02 3551.89,515.82 3550.97,512.801 3549.77,509.961 3548.57,507.129 3546.93,504.629 3544.85,502.461 3542.77,500.309 3540.17,498.602 3537.04,497.359 3533.93,496.129 3530.13,495.5 3525.65,495.5 3521.24,495.5 3517.47,496.129 3514.31,497.359 3511.15,498.602 3508.53,500.309 3506.45,502.461 3504.37,504.629 3502.73,507.129 3501.53,509.961 3500.33,512.801 3499.41,515.82 3498.76,519.02 3498.13,522.219 3497.73,525.5 3497.57,528.859 3497.41,532.219 3497.33,535.469 3497.33,538.582 3497.33,541.699 3497.41,544.941 3497.57,548.301"
         style="fill:#176fc1;fill-opacity:1;fill-rule:nonzero;stroke:none"
         id="path188" />
      <path
         d="M 3613.91,536.84 C 3613.15,539.609 3611.99,542.07 3610.42,544.23 3608.86,546.379 3606.87,548.102 3604.43,549.379 3601.99,550.66 3599.12,551.309 3595.85,551.309 3592.41,551.309 3589.49,550.621 3587.08,549.27 3584.68,547.91 3582.73,546.129 3581.21,543.922 3579.68,541.719 3578.59,539.219 3577.9,536.422 3577.22,533.621 3576.89,530.781 3576.89,527.91 3576.89,524.859 3577.25,521.922 3577.96,519.082 3578.69,516.25 3579.83,513.75 3581.38,511.582 3582.94,509.422 3584.96,507.68 3587.46,506.359 3589.93,505.039 3592.92,504.379 3596.45,504.379 3599.96,504.379 3602.9,505.059 3605.27,506.422 3607.63,507.781 3609.53,509.59 3610.97,511.82 3612.41,514.059 3613.45,516.621 3614.09,519.512 3614.72,522.379 3615.05,525.352 3615.05,528.379 3615.05,531.27 3614.66,534.082 3613.91,536.84 Z M 3577.25,558.859 V 550.469 H 3577.49 C 3579.17,553.898 3581.81,556.398 3585.4,557.969 3589.01,559.531 3592.96,560.309 3597.29,560.309 3602.08,560.309 3606.26,559.422 3609.83,557.66 3613.39,555.898 3616.34,553.52 3618.71,550.531 3621.07,547.52 3622.85,544.059 3624.05,540.141 3625.25,536.23 3625.85,532.07 3625.85,527.66 3625.85,523.262 3625.27,519.102 3624.11,515.18 3622.94,511.27 3621.19,507.852 3618.82,504.922 3616.47,502.012 3613.51,499.711 3609.96,498.031 3606.38,496.352 3602.24,495.5 3597.53,495.5 3596.01,495.5 3594.31,495.66 3592.43,495.98 3590.54,496.309 3588.69,496.82 3586.85,497.539 3585.01,498.262 3583.27,499.238 3581.63,500.488 3579.99,501.719 3578.61,503.262 3577.49,505.102 H 3577.25 V 473.18 H 3567.04 V 558.859 H 3577.25"
         style="fill:#176fc1;fill-opacity:1;fill-rule:nonzero;stroke:none"
         id="path190" />
      <path
         d="M 3632.92,558.859 H 3646.01 L 3660.88,537.148 3676.36,558.859 H 3688.61 L 3667.24,530.309 3691.24,496.82 H 3678.16 L 3660.88,522.5 3643.61,496.82 H 3631.24 L 3654.53,529.469 3632.92,558.859"
         style="fill:#176fc1;fill-opacity:1;fill-rule:nonzero;stroke:none"
         id="path192" />
      <path
         d="M 3791.93,531.27 V 523.102 H 3765.77 V 496.82 H 3757.61 V 523.102 H 3731.45 V 531.27 H 3757.61 V 557.539 H 3765.77 V 531.27 H 3791.93"
         style="fill:#176fc1;fill-opacity:1;fill-rule:nonzero;stroke:none"
         id="path194" />
    </g>
  </g>
</svg>
